{"glyphs":{"0":{"ha":867,"x_min":34,"x_max":833,"o":"m 263 68 q 263 68 263 68 l 263 68 q 263 68 263 68 l 263 68 m 610 68 q 610 68 610 68 l 610 68 q 610 68 610 68 l 610 68 m 563 735 q 563 735 563 735 l 563 735 q 563 735 563 735 l 563 735 m 304 738 q 304 738 304 738 l 304 738 q 304 738 304 738 l 304 738 m 433 274 q 521 312 473 312 q 563 302 541 312 l 563 302 q 555 347 555 323 q 591 433 555 389 l 591 433 q 555 521 555 472 q 591 606 555 563 l 591 606 q 555 694 555 646 q 563 735 555 715 l 563 735 q 521 728 543 728 q 437 762 477 728 l 437 762 q 347 728 399 728 q 304 738 324 728 l 304 738 q 312 694 312 716 q 278 604 312 642 l 278 604 q 312 521 312 566 q 278 430 312 468 l 278 430 q 312 347 312 392 q 305 304 312 324 l 305 304 q 347 312 326 312 q 433 274 389 312 l 433 274 m 437 762 q 437 762 437 762 l 437 762 q 437 762 437 762 l 437 762 m 174 34 q 81 75 126 34 q 34 174 34 118 q 71 259 34 216 l 71 259 q 34 347 34 298 q 71 433 34 389 l 71 433 q 34 521 34 472 q 71 606 34 563 l 71 606 q 34 694 34 646 q 71 780 34 736 l 71 780 q 34 868 34 819 q 75 958 34 913 q 174 1006 119 1006 q 259 968 216 1006 l 259 968 q 347 1006 300 1006 q 433 968 389 1006 l 433 968 q 521 1006 473 1006 q 606 968 563 1006 l 606 968 q 694 1006 647 1006 q 784 966 738 1006 q 833 868 833 921 q 799 777 833 815 l 799 777 q 833 694 833 739 q 799 604 833 642 l 799 604 q 833 521 833 566 q 799 430 833 468 l 799 430 q 833 347 833 392 q 799 256 833 294 l 799 256 q 833 174 833 218 q 792 75 833 115 q 694 34 751 34 q 610 68 651 34 l 610 68 q 521 34 572 34 q 437 68 477 34 l 437 68 q 347 34 399 34 q 263 68 304 34 q 174 34 225 34 l 174 34 z "},"1":{"ha":694,"x_min":34,"x_max":659,"o":"m 263 68 q 263 68 263 68 l 263 68 q 263 68 263 68 l 263 68 m 216 562 q 216 562 216 562 l 216 562 q 216 562 216 562 l 216 562 m 174 34 q 81 75 126 34 q 34 174 34 118 q 75 263 34 218 q 174 312 119 312 q 216 302 194 312 l 216 302 q 208 347 208 323 q 244 433 208 389 l 244 433 q 208 521 208 472 q 216 562 208 541 l 216 562 q 174 555 195 555 q 81 595 126 555 q 34 694 34 639 q 75 784 34 739 q 174 833 119 833 q 216 823 194 833 l 216 823 q 208 868 208 844 q 248 958 208 913 q 347 1006 293 1006 q 437 966 391 1006 q 486 868 486 921 q 452 777 486 815 l 452 777 q 486 694 486 739 q 452 604 486 642 l 452 604 q 486 521 486 566 q 452 430 486 468 l 452 430 q 486 347 486 392 q 479 304 486 324 l 479 304 q 521 312 499 312 q 610 271 564 312 q 659 174 659 227 q 618 75 659 115 q 521 34 578 34 q 437 68 477 34 l 437 68 q 347 34 399 34 q 263 68 304 34 l 263 68 q 174 34 225 34 l 174 34 z "},"2":{"ha":867,"x_min":34,"x_max":833,"o":"m 263 68 q 263 68 263 68 l 263 68 q 263 68 263 68 l 263 68 m 610 68 q 610 68 610 68 l 610 68 q 610 68 610 68 l 610 68 m 477 391 q 477 391 477 391 l 477 391 q 477 391 477 391 l 477 391 m 651 564 q 651 564 651 564 l 651 564 q 651 564 651 564 l 651 564 m 437 762 q 437 762 437 762 l 437 762 q 437 762 437 762 l 437 762 m 174 34 q 81 75 126 34 q 34 174 34 118 q 75 263 34 218 q 174 312 119 312 q 216 302 194 312 l 216 302 q 208 347 208 323 q 248 437 208 392 q 347 486 293 486 q 389 476 368 486 l 389 476 q 381 521 381 496 q 422 610 381 566 q 521 659 467 659 q 563 650 541 659 l 563 650 q 555 694 555 670 q 563 735 555 715 l 563 735 q 521 728 543 728 q 437 762 477 728 l 437 762 q 347 728 399 728 q 304 738 324 728 l 304 738 q 312 694 312 716 q 271 595 312 636 q 174 555 231 555 q 81 595 126 555 q 34 694 34 639 q 75 784 34 739 q 174 833 119 833 q 216 823 194 833 l 216 823 q 208 868 208 844 q 248 958 208 913 q 347 1006 293 1006 q 433 968 389 1006 l 433 968 q 521 1006 473 1006 q 610 966 564 1006 q 659 868 659 921 q 652 825 659 845 l 652 825 q 694 833 673 833 q 784 792 738 833 q 833 694 833 747 q 792 595 833 636 q 694 555 751 555 q 651 564 671 555 l 651 564 q 659 521 659 543 q 618 422 659 463 q 521 381 578 381 q 477 391 498 381 l 477 391 q 486 347 486 369 q 479 304 486 324 l 479 304 q 521 312 499 312 q 606 274 563 312 l 606 274 q 694 312 647 312 q 784 271 738 312 q 833 174 833 227 q 792 75 833 115 q 694 34 751 34 q 610 68 651 34 l 610 68 q 521 34 572 34 q 437 68 477 34 l 437 68 q 347 34 399 34 q 263 68 304 34 q 174 34 225 34 l 174 34 z "},"3":{"ha":867,"x_min":34,"x_max":833,"o":"m 437 68 q 437 68 437 68 l 437 68 q 437 68 437 68 l 437 68 m 216 214 q 216 214 216 214 l 216 214 q 216 214 216 214 l 216 214 m 651 217 q 651 217 651 217 l 651 217 q 651 217 651 217 l 651 217 m 563 388 q 563 388 563 388 l 563 388 q 563 388 563 388 l 563 388 m 651 564 q 651 564 651 564 l 651 564 q 651 564 651 564 l 651 564 m 304 738 q 304 738 304 738 l 304 738 q 304 738 304 738 l 304 738 m 347 34 q 255 75 300 34 q 208 174 208 118 q 216 214 208 194 l 216 214 q 174 208 195 208 q 81 248 126 208 q 34 347 34 292 q 75 437 34 392 q 174 486 119 486 q 263 445 217 486 q 312 347 312 400 q 305 304 312 324 l 305 304 q 347 312 326 312 q 433 274 389 312 l 433 274 q 521 312 473 312 q 563 302 541 312 l 563 302 q 555 347 555 323 q 563 388 555 368 l 563 388 q 521 381 543 381 q 429 422 473 381 q 381 521 381 465 q 422 610 381 566 q 521 659 467 659 q 563 650 541 659 l 563 650 q 555 694 555 670 q 563 735 555 715 l 563 735 q 521 728 543 728 q 437 762 477 728 l 437 762 q 347 728 399 728 q 304 738 324 728 l 304 738 q 312 694 312 716 q 271 595 312 636 q 174 555 231 555 q 81 595 126 555 q 34 694 34 639 q 75 784 34 739 q 174 833 119 833 q 216 823 194 833 l 216 823 q 208 868 208 844 q 248 958 208 913 q 347 1006 293 1006 q 433 968 389 1006 l 433 968 q 521 1006 473 1006 q 610 966 564 1006 q 659 868 659 921 q 652 825 659 845 l 652 825 q 694 833 673 833 q 784 792 738 833 q 833 694 833 747 q 792 595 833 636 q 694 555 751 555 q 651 564 671 555 l 651 564 q 659 521 659 543 q 652 477 659 498 l 652 477 q 694 486 673 486 q 784 445 738 486 q 833 347 833 400 q 792 248 833 289 q 694 208 751 208 q 651 217 671 208 l 651 217 q 659 174 659 195 q 618 75 659 115 q 521 34 578 34 q 437 68 477 34 l 437 68 q 347 34 399 34 l 347 34 z "},"4":{"ha":694,"x_min":34,"x_max":659,"o":"m 389 388 q 389 388 389 388 l 389 388 q 389 388 389 388 l 389 388 m 263 415 q 263 415 263 415 l 263 415 q 263 415 263 415 l 263 415 m 521 34 q 429 75 473 34 q 381 174 381 118 q 418 259 381 216 l 418 259 q 381 347 381 298 q 389 388 381 368 l 389 388 q 347 381 369 381 q 263 415 304 381 q 174 381 225 381 q 81 422 126 381 q 34 521 34 465 q 71 606 34 563 l 71 606 q 34 694 34 646 q 71 780 34 736 l 71 780 q 34 868 34 819 q 75 958 34 913 q 174 1006 119 1006 q 263 966 217 1006 q 312 868 312 921 q 278 777 312 815 l 278 777 q 312 694 312 739 q 305 651 312 671 l 305 651 q 347 659 326 659 q 389 650 368 659 l 389 650 q 381 694 381 670 q 418 780 381 736 l 418 780 q 381 868 381 819 q 422 958 381 913 q 521 1006 467 1006 q 610 966 564 1006 q 659 868 659 921 q 625 777 659 815 l 625 777 q 659 694 659 739 q 625 604 659 642 l 625 604 q 659 521 659 566 q 625 430 659 468 l 625 430 q 659 347 659 392 q 625 256 659 294 l 625 256 q 659 174 659 218 q 618 75 659 115 q 521 34 578 34 l 521 34 z "},"5":{"ha":867,"x_min":34,"x_max":833,"o":"m 263 68 q 263 68 263 68 l 263 68 q 263 68 263 68 l 263 68 m 651 217 q 651 217 651 217 l 651 217 q 651 217 651 217 l 651 217 m 563 388 q 563 388 563 388 l 563 388 q 563 388 563 388 l 563 388 m 263 415 q 263 415 263 415 l 263 415 q 263 415 263 415 l 263 415 m 610 762 q 610 762 610 762 l 610 762 q 610 762 610 762 l 610 762 m 174 34 q 81 75 126 34 q 34 174 34 118 q 75 263 34 218 q 174 312 119 312 q 259 274 216 312 l 259 274 q 347 312 300 312 q 433 274 389 312 l 433 274 q 521 312 473 312 q 563 302 541 312 l 563 302 q 555 347 555 323 q 563 388 555 368 l 563 388 q 521 381 543 381 q 437 415 477 381 l 437 415 q 347 381 399 381 q 263 415 304 381 l 263 415 q 174 381 225 381 q 81 422 126 381 q 34 521 34 465 q 71 606 34 563 l 71 606 q 34 694 34 646 q 71 780 34 736 l 71 780 q 34 868 34 819 q 75 958 34 913 q 174 1006 119 1006 q 259 968 216 1006 l 259 968 q 347 1006 300 1006 q 433 968 389 1006 l 433 968 q 521 1006 473 1006 q 606 968 563 1006 l 606 968 q 694 1006 647 1006 q 784 966 738 1006 q 833 868 833 921 q 792 769 833 810 q 694 728 751 728 q 610 762 651 728 l 610 762 q 521 728 572 728 q 437 762 477 728 l 437 762 q 347 728 399 728 q 304 738 324 728 l 304 738 q 312 694 312 716 q 305 651 312 671 l 305 651 q 347 659 326 659 q 433 621 389 659 l 433 621 q 521 659 473 659 q 610 618 564 659 q 659 521 659 574 q 652 477 659 498 l 652 477 q 694 486 673 486 q 784 445 738 486 q 833 347 833 400 q 792 248 833 289 q 694 208 751 208 q 651 217 671 208 q 659 174 659 195 q 618 75 659 115 q 521 34 578 34 q 437 68 477 34 l 437 68 q 347 34 399 34 q 263 68 304 34 l 263 68 q 174 34 225 34 l 174 34 z "},"6":{"ha":867,"x_min":34,"x_max":833,"o":"m 437 68 q 437 68 437 68 l 437 68 q 437 68 437 68 l 437 68 m 216 214 q 216 214 216 214 l 216 214 q 216 214 216 214 l 216 214 m 651 217 q 651 217 651 217 l 651 217 q 651 217 651 217 l 651 217 m 563 388 q 563 388 563 388 l 563 388 q 563 388 563 388 l 563 388 m 304 391 q 304 391 304 391 l 304 391 q 304 391 304 391 l 304 391 m 433 274 q 521 312 473 312 q 563 302 541 312 l 563 302 q 555 347 555 323 q 563 388 555 368 l 563 388 q 521 381 543 381 q 437 415 477 381 l 437 415 q 347 381 399 381 q 304 391 324 381 l 304 391 q 312 347 312 369 q 305 304 312 324 l 305 304 q 347 312 326 312 q 433 274 389 312 l 433 274 m 347 34 q 255 75 300 34 q 208 174 208 118 q 216 214 208 194 l 216 214 q 174 208 195 208 q 81 248 126 208 q 34 347 34 292 q 71 433 34 389 l 71 433 q 34 521 34 472 q 75 610 34 566 q 174 659 119 659 q 216 650 194 659 l 216 650 q 208 694 208 670 q 248 784 208 739 q 347 833 293 833 q 389 823 368 833 l 389 823 q 381 868 381 844 q 422 958 381 913 q 521 1006 467 1006 q 610 966 564 1006 q 659 868 659 921 q 618 769 659 810 q 521 728 578 728 q 477 738 498 728 l 477 738 q 486 694 486 716 q 479 651 486 671 l 479 651 q 521 659 499 659 q 610 618 564 659 q 659 521 659 574 q 652 477 659 498 l 652 477 q 694 486 673 486 q 784 445 738 486 q 833 347 833 400 q 792 248 833 289 q 694 208 751 208 q 651 217 671 208 l 651 217 q 659 174 659 195 q 618 75 659 115 q 521 34 578 34 q 437 68 477 34 l 437 68 q 347 34 399 34 l 347 34 z "},"7":{"ha":1040,"x_min":34,"x_max":1006,"o":"m 304 217 q 304 217 304 217 l 304 217 q 304 217 304 217 l 304 217 m 477 391 q 477 391 477 391 l 477 391 q 477 391 477 391 l 477 391 m 651 564 q 651 564 651 564 l 651 564 q 651 564 651 564 l 651 564 m 563 735 q 563 735 563 735 l 563 735 q 563 735 563 735 l 563 735 m 263 762 q 263 762 263 762 l 263 762 q 263 762 263 762 l 263 762 m 174 34 q 81 75 126 34 q 34 174 34 118 q 75 263 34 218 q 174 312 119 312 q 216 302 194 312 l 216 302 q 208 347 208 323 q 248 437 208 392 q 347 486 293 486 q 389 476 368 486 l 389 476 q 381 521 381 496 q 422 610 381 566 q 521 659 467 659 q 563 650 541 659 l 563 650 q 555 694 555 670 q 563 735 555 715 l 563 735 q 521 728 543 728 q 437 762 477 728 l 437 762 q 347 728 399 728 q 263 762 304 728 l 263 762 q 174 728 225 728 q 81 769 126 728 q 34 868 34 812 q 75 958 34 913 q 174 1006 119 1006 q 259 968 216 1006 l 259 968 q 347 1006 300 1006 q 433 968 389 1006 l 433 968 q 521 1006 473 1006 q 606 968 563 1006 l 606 968 q 694 1006 647 1006 q 780 968 736 1006 l 780 968 q 868 1006 821 1006 q 958 966 911 1006 q 1006 868 1006 921 q 966 769 1006 810 q 868 728 925 728 q 825 738 845 728 l 825 738 q 833 694 833 716 q 792 595 833 636 q 694 555 751 555 q 651 564 671 555 l 651 564 q 659 521 659 543 q 618 422 659 463 q 521 381 578 381 q 477 391 498 381 l 477 391 q 486 347 486 369 q 445 248 486 289 q 347 208 404 208 q 304 217 324 208 l 304 217 q 312 174 312 195 q 271 75 312 115 q 174 34 231 34 l 174 34 z "},"8":{"ha":867,"x_min":34,"x_max":833,"o":"m 437 68 q 437 68 437 68 l 437 68 q 437 68 437 68 l 437 68 m 216 214 q 216 214 216 214 l 216 214 q 216 214 216 214 l 216 214 m 651 217 q 651 217 651 217 l 651 217 q 651 217 651 217 l 651 217 m 563 388 q 563 388 563 388 l 563 388 q 563 388 563 388 l 563 388 m 304 391 q 304 391 304 391 l 304 391 q 304 391 304 391 l 304 391 m 433 274 q 521 312 473 312 q 563 302 541 312 l 563 302 q 555 347 555 323 q 563 388 555 368 l 563 388 q 521 381 543 381 q 437 415 477 381 q 347 381 399 381 q 304 391 324 381 l 304 391 q 312 347 312 369 q 305 304 312 324 l 305 304 q 347 312 326 312 q 433 274 389 312 l 433 274 m 437 415 q 437 415 437 415 l 437 415 q 437 415 437 415 l 437 415 m 216 562 q 216 562 216 562 l 216 562 q 216 562 216 562 l 216 562 m 651 564 q 651 564 651 564 l 651 564 q 651 564 651 564 l 651 564 m 433 621 q 521 659 473 659 q 563 650 541 659 l 563 650 q 555 694 555 670 q 563 735 555 715 l 563 735 q 521 728 543 728 q 437 762 477 728 l 437 762 q 347 728 399 728 q 304 738 324 728 l 304 738 q 312 694 312 716 q 305 651 312 671 l 305 651 q 347 659 326 659 q 433 621 389 659 l 433 621 m 437 762 q 437 762 437 762 l 437 762 q 437 762 437 762 l 437 762 m 347 34 q 255 75 300 34 q 208 174 208 118 q 216 214 208 194 l 216 214 q 174 208 195 208 q 81 248 126 208 q 34 347 34 292 q 75 437 34 392 q 174 486 119 486 q 216 476 194 486 l 216 476 q 208 521 208 496 q 216 562 208 541 l 216 562 q 174 555 195 555 q 81 595 126 555 q 34 694 34 639 q 75 784 34 739 q 174 833 119 833 q 216 823 194 833 l 216 823 q 208 868 208 844 q 248 958 208 913 q 347 1006 293 1006 q 433 968 389 1006 l 433 968 q 521 1006 473 1006 q 610 966 564 1006 q 659 868 659 921 q 652 825 659 845 l 652 825 q 694 833 673 833 q 784 792 738 833 q 833 694 833 747 q 792 595 833 636 q 694 555 751 555 q 651 564 671 555 q 659 521 659 543 q 652 477 659 498 l 652 477 q 694 486 673 486 q 784 445 738 486 q 833 347 833 400 q 792 248 833 289 q 694 208 751 208 q 651 217 671 208 l 651 217 q 659 174 659 195 q 618 75 659 115 q 521 34 578 34 q 437 68 477 34 l 437 68 q 347 34 399 34 l 347 34 z "},"9":{"ha":694,"x_min":34,"x_max":659,"o":"m 389 388 q 389 388 389 388 l 389 388 q 389 388 389 388 l 389 388 m 263 415 q 263 415 263 415 l 263 415 q 263 415 263 415 l 263 415 m 389 735 q 389 735 389 735 l 389 735 q 389 735 389 735 l 389 735 m 389 650 q 381 694 381 670 q 389 735 381 715 q 347 728 369 728 q 304 738 324 728 q 312 694 312 716 q 305 651 312 671 l 305 651 q 347 659 326 659 q 389 650 368 659 l 389 650 m 304 738 q 304 738 304 738 l 304 738 q 304 738 304 738 l 304 738 m 521 34 q 429 75 473 34 q 381 174 381 118 q 418 259 381 216 l 418 259 q 381 347 381 298 q 389 388 381 368 l 389 388 q 347 381 369 381 q 263 415 304 381 q 174 381 225 381 q 81 422 126 381 q 34 521 34 465 q 71 606 34 563 l 71 606 q 34 694 34 646 q 75 784 34 739 q 174 833 119 833 q 216 823 194 833 l 216 823 q 208 868 208 844 q 248 958 208 913 q 347 1006 293 1006 q 433 968 389 1006 l 433 968 q 521 1006 473 1006 q 610 966 564 1006 q 659 868 659 921 q 625 777 659 815 l 625 777 q 659 694 659 739 q 625 604 659 642 l 625 604 q 659 521 659 566 q 625 430 659 468 l 625 430 q 659 347 659 392 q 625 256 659 294 l 625 256 q 659 174 659 218 q 618 75 659 115 q 521 34 578 34 l 521 34 z "}," ":{"ha":347,"x_min":0,"x_max":0,"o":""},"!":{"ha":347,"x_min":34,"x_max":312,"o":"m 174 34 q 81 75 126 34 q 34 174 34 118 q 75 263 34 218 q 174 312 119 312 q 263 271 217 312 q 312 174 312 227 q 271 75 312 115 q 174 34 231 34 l 174 34 m 174 381 q 81 422 126 381 q 34 521 34 465 q 71 606 34 563 l 71 606 q 34 694 34 646 q 71 780 34 736 l 71 780 q 34 868 34 819 q 75 958 34 913 q 174 1006 119 1006 q 263 966 217 1006 q 312 868 312 921 q 278 777 312 815 l 278 777 q 312 694 312 739 q 278 604 312 642 l 278 604 q 312 521 312 566 q 271 422 312 463 q 174 381 231 381 l 174 381 z "},"\"":{"ha":521,"x_min":34,"x_max":486,"o":"m 174 728 q 81 769 126 728 q 34 868 34 812 q 75 958 34 913 q 174 1006 119 1006 q 259 968 216 1006 l 259 968 q 347 1006 300 1006 q 437 966 391 1006 q 486 868 486 921 q 445 769 486 810 q 347 728 404 728 q 263 762 304 728 l 263 762 q 174 728 225 728 l 174 728 z "},"#":{"ha":1040,"x_min":34,"x_max":1006,"o":"m 216 214 q 216 214 216 214 l 216 214 q 216 214 216 214 l 216 214 m 477 217 q 477 217 477 217 l 477 217 q 477 217 477 217 l 477 217 m 563 562 q 563 562 563 562 l 563 562 q 563 562 563 562 l 563 562 m 563 476 q 555 521 555 496 q 563 562 555 541 l 563 562 q 521 555 543 555 q 477 564 498 555 l 477 564 q 486 521 486 543 q 479 477 486 498 l 479 477 q 521 486 499 486 q 563 476 541 486 l 563 476 m 825 564 q 825 564 825 564 l 825 564 q 825 564 825 564 l 825 564 m 347 34 q 255 75 300 34 q 208 174 208 118 q 216 214 208 194 q 174 208 195 208 q 81 248 126 208 q 34 347 34 292 q 75 437 34 392 q 174 486 119 486 q 216 476 194 486 l 216 476 q 208 521 208 496 q 216 562 208 541 l 216 562 q 174 555 195 555 q 81 595 126 555 q 34 694 34 639 q 75 784 34 739 q 174 833 119 833 q 216 823 194 833 l 216 823 q 208 868 208 844 q 248 958 208 913 q 347 1006 293 1006 q 437 966 391 1006 q 486 868 486 921 q 479 825 486 845 l 479 825 q 521 833 499 833 q 563 823 541 833 l 563 823 q 555 868 555 844 q 595 958 555 913 q 694 1006 640 1006 q 784 966 738 1006 q 833 868 833 921 q 826 825 833 845 l 826 825 q 868 833 846 833 q 958 792 911 833 q 1006 694 1006 747 q 966 595 1006 636 q 868 555 925 555 q 825 564 845 555 q 833 521 833 543 q 826 477 833 498 l 826 477 q 868 486 846 486 q 958 445 911 486 q 1006 347 1006 400 q 966 248 1006 289 q 868 208 925 208 q 825 217 845 208 q 833 174 833 195 q 792 75 833 115 q 694 34 751 34 q 602 75 647 34 q 555 174 555 118 q 563 214 555 194 l 563 214 q 521 208 543 208 q 477 217 498 208 l 477 217 q 486 174 486 195 q 445 75 486 115 q 347 34 404 34 l 347 34 z "},"$":{"ha":867,"x_min":34,"x_max":833,"o":"m 389 214 q 389 214 389 214 l 389 214 q 389 214 389 214 l 389 214 m 263 241 q 263 241 263 241 l 263 241 q 263 241 263 241 l 263 241 m 651 391 q 651 391 651 391 l 651 391 q 651 391 651 391 l 651 391 m 389 562 q 389 562 389 562 l 389 562 q 389 562 389 562 l 389 562 m 389 909 q 389 909 389 909 l 389 909 q 389 909 389 909 l 389 909 m 389 823 q 381 868 381 844 q 389 909 381 888 l 389 909 q 347 902 369 902 q 304 911 324 902 l 304 911 q 312 868 312 890 q 305 825 312 845 l 305 825 q 347 833 326 833 q 389 823 368 833 l 389 823 m 304 911 q 304 911 304 911 l 304 911 q 304 911 304 911 l 304 911 m 521 34 q 429 75 473 34 q 381 174 381 118 q 389 214 381 194 q 347 208 369 208 q 263 241 304 208 q 174 208 225 208 q 81 248 126 208 q 34 347 34 292 q 75 437 34 392 q 174 486 119 486 q 259 448 216 486 l 259 448 q 347 486 300 486 q 389 476 368 486 l 389 476 q 381 521 381 496 q 389 562 381 541 l 389 562 q 347 555 369 555 q 255 595 300 555 q 208 694 208 639 q 216 735 208 715 l 216 735 q 174 728 195 728 q 81 769 126 728 q 34 868 34 812 q 75 958 34 913 q 174 1006 119 1006 q 216 997 194 1006 l 216 997 q 208 1042 208 1017 q 248 1131 208 1086 q 347 1180 293 1180 q 389 1171 368 1180 l 389 1171 q 381 1215 381 1191 q 422 1305 381 1260 q 521 1354 467 1354 q 610 1313 564 1354 q 659 1215 659 1268 q 652 1172 659 1192 l 652 1172 q 694 1180 673 1180 q 784 1139 738 1180 q 833 1042 833 1095 q 792 943 833 983 q 694 902 751 902 q 651 911 671 902 l 651 911 q 659 868 659 890 q 625 777 659 815 l 625 777 q 659 694 659 739 q 652 651 659 671 l 652 651 q 694 659 673 659 q 784 618 738 659 q 833 521 833 574 q 792 422 833 463 q 694 381 751 381 q 651 391 671 381 l 651 391 q 659 347 659 369 q 625 256 659 294 l 625 256 q 659 174 659 218 q 618 75 659 115 q 521 34 578 34 l 521 34 z "},"%":{"ha":1040,"x_min":34,"x_max":1006,"o":"m 304 217 q 304 217 304 217 l 304 217 q 304 217 304 217 l 304 217 m 868 34 q 776 75 821 34 q 728 174 728 118 q 769 263 728 218 q 868 312 814 312 q 958 271 911 312 q 1006 174 1006 227 q 966 75 1006 115 q 868 34 925 34 l 868 34 m 477 391 q 477 391 477 391 l 477 391 q 477 391 477 391 l 477 391 m 825 738 q 825 738 825 738 l 825 738 q 825 738 825 738 l 825 738 m 174 728 q 81 769 126 728 q 34 868 34 812 q 75 958 34 913 q 174 1006 119 1006 q 263 966 217 1006 q 312 868 312 921 q 271 769 312 810 q 174 728 231 728 l 174 728 m 174 34 q 81 75 126 34 q 34 174 34 118 q 75 263 34 218 q 174 312 119 312 q 216 302 194 312 l 216 302 q 208 347 208 323 q 248 437 208 392 q 347 486 293 486 q 389 476 368 486 l 389 476 q 381 521 381 496 q 422 610 381 566 q 521 659 467 659 q 563 650 541 659 l 563 650 q 555 694 555 670 q 595 784 555 739 q 694 833 640 833 q 736 823 715 833 l 736 823 q 728 868 728 844 q 769 958 728 913 q 868 1006 814 1006 q 958 966 911 1006 q 1006 868 1006 921 q 966 769 1006 810 q 868 728 925 728 q 825 738 845 728 l 825 738 q 833 694 833 716 q 792 595 833 636 q 694 555 751 555 q 651 564 671 555 l 651 564 q 659 521 659 543 q 618 422 659 463 q 521 381 578 381 q 477 391 498 381 l 477 391 q 486 347 486 369 q 445 248 486 289 q 347 208 404 208 q 304 217 324 208 l 304 217 q 312 174 312 195 q 271 75 312 115 q 174 34 231 34 l 174 34 z "},"&":{"ha":1040,"x_min":34,"x_max":1006,"o":"m 389 388 q 389 388 389 388 l 389 388 q 389 388 389 388 l 389 388 m 651 391 q 651 391 651 391 l 651 391 q 651 391 651 391 l 651 391 m 263 415 q 263 415 263 415 l 263 415 q 263 415 263 415 l 263 415 m 521 34 q 429 75 473 34 q 381 174 381 118 q 418 259 381 216 l 418 259 q 381 347 381 298 q 389 388 381 368 l 389 388 q 347 381 369 381 q 263 415 304 381 q 174 381 225 381 q 81 422 126 381 q 34 521 34 465 q 75 610 34 566 q 174 659 119 659 q 259 621 216 659 l 259 621 q 347 659 300 659 q 389 650 368 659 l 389 650 q 381 694 381 670 q 418 780 381 736 l 418 780 q 381 868 381 819 q 422 958 381 913 q 521 1006 467 1006 q 610 966 564 1006 q 659 868 659 921 q 625 777 659 815 l 625 777 q 659 694 659 739 q 652 651 659 671 l 652 651 q 694 659 673 659 q 780 621 736 659 l 780 621 q 868 659 821 659 q 958 618 911 659 q 1006 521 1006 574 q 966 422 1006 463 q 868 381 925 381 q 784 415 825 381 l 784 415 q 694 381 746 381 q 651 391 671 381 l 651 391 q 659 347 659 369 q 625 256 659 294 l 625 256 q 659 174 659 218 q 618 75 659 115 q 521 34 578 34 l 521 34 z "},"'":{"ha":347,"x_min":34,"x_max":312,"o":"m 174 728 q 81 769 126 728 q 34 868 34 812 q 75 958 34 913 q 174 1006 119 1006 q 263 966 217 1006 q 312 868 312 921 q 271 769 312 810 q 174 728 231 728 l 174 728 z "},"(":{"ha":521,"x_min":34,"x_max":486,"o":"m 216 214 q 216 214 216 214 l 216 214 q 216 214 216 214 l 216 214 m 347 34 q 255 75 300 34 q 208 174 208 118 q 216 214 208 194 l 216 214 q 174 208 195 208 q 81 248 126 208 q 34 347 34 292 q 71 433 34 389 l 71 433 q 34 521 34 472 q 71 606 34 563 l 71 606 q 34 694 34 646 q 75 784 34 739 q 174 833 119 833 q 216 823 194 833 l 216 823 q 208 868 208 844 q 248 958 208 913 q 347 1006 293 1006 q 437 966 391 1006 q 486 868 486 921 q 445 769 486 810 q 347 728 404 728 q 304 738 324 728 l 304 738 q 312 694 312 716 q 278 604 312 642 l 278 604 q 312 521 312 566 q 278 430 312 468 l 278 430 q 312 347 312 392 q 305 304 312 324 l 305 304 q 347 312 326 312 q 437 271 391 312 q 486 174 486 227 q 445 75 486 115 q 347 34 404 34 l 347 34 z "},")":{"ha":521,"x_min":34,"x_max":486,"o":"m 304 217 q 304 217 304 217 l 304 217 q 304 217 304 217 l 304 217 m 174 34 q 81 75 126 34 q 34 174 34 118 q 75 263 34 218 q 174 312 119 312 q 216 302 194 312 l 216 302 q 208 347 208 323 q 244 433 208 389 l 244 433 q 208 521 208 472 q 244 606 208 563 l 244 606 q 208 694 208 646 q 216 735 208 715 l 216 735 q 174 728 195 728 q 81 769 126 728 q 34 868 34 812 q 75 958 34 913 q 174 1006 119 1006 q 263 966 217 1006 q 312 868 312 921 q 305 825 312 845 l 305 825 q 347 833 326 833 q 437 792 391 833 q 486 694 486 747 q 452 604 486 642 l 452 604 q 486 521 486 566 q 452 430 486 468 l 452 430 q 486 347 486 392 q 445 248 486 289 q 347 208 404 208 q 304 217 324 208 q 312 174 312 195 q 271 75 312 115 q 174 34 231 34 l 174 34 z "},"*":{"ha":347,"x_min":34,"x_max":312,"o":"m 174 728 q 81 769 126 728 q 34 868 34 812 q 75 958 34 913 q 174 1006 119 1006 q 263 966 217 1006 q 312 868 312 921 q 271 769 312 810 q 174 728 231 728 l 174 728 z "},"+":{"ha":1040,"x_min":34,"x_max":1006,"o":"m 389 388 q 389 388 389 388 l 389 388 q 389 388 389 388 l 389 388 m 651 391 q 651 391 651 391 l 651 391 q 651 391 651 391 l 651 391 m 263 415 q 263 415 263 415 l 263 415 q 263 415 263 415 l 263 415 m 521 34 q 429 75 473 34 q 381 174 381 118 q 418 259 381 216 l 418 259 q 381 347 381 298 q 389 388 381 368 l 389 388 q 347 381 369 381 q 263 415 304 381 q 174 381 225 381 q 81 422 126 381 q 34 521 34 465 q 75 610 34 566 q 174 659 119 659 q 259 621 216 659 l 259 621 q 347 659 300 659 q 389 650 368 659 l 389 650 q 381 694 381 670 q 418 780 381 736 l 418 780 q 381 868 381 819 q 422 958 381 913 q 521 1006 467 1006 q 610 966 564 1006 q 659 868 659 921 q 625 777 659 815 l 625 777 q 659 694 659 739 q 652 651 659 671 l 652 651 q 694 659 673 659 q 780 621 736 659 l 780 621 q 868 659 821 659 q 958 618 911 659 q 1006 521 1006 574 q 966 422 1006 463 q 868 381 925 381 q 784 415 825 381 l 784 415 q 694 381 746 381 q 651 391 671 381 l 651 391 q 659 347 659 369 q 625 256 659 294 l 625 256 q 659 174 659 218 q 618 75 659 115 q 521 34 578 34 l 521 34 z "},",":{"ha":347,"x_min":34,"x_max":312,"o":"m 174 34 q 81 75 126 34 q 34 174 34 118 q 75 263 34 218 q 174 312 119 312 q 263 271 217 312 q 312 174 312 227 q 271 75 312 115 q 174 34 231 34 l 174 34 z "},"-":{"ha":867,"x_min":34,"x_max":833,"o":"m 263 415 q 263 415 263 415 l 263 415 q 263 415 263 415 l 263 415 m 610 415 q 610 415 610 415 l 610 415 q 610 415 610 415 l 610 415 m 174 381 q 81 422 126 381 q 34 521 34 465 q 75 610 34 566 q 174 659 119 659 q 259 621 216 659 l 259 621 q 347 659 300 659 q 433 621 389 659 l 433 621 q 521 659 473 659 q 606 621 563 659 l 606 621 q 694 659 647 659 q 784 618 738 659 q 833 521 833 574 q 792 422 833 463 q 694 381 751 381 q 610 415 651 381 l 610 415 q 521 381 572 381 q 437 415 477 381 l 437 415 q 347 381 399 381 q 263 415 304 381 l 263 415 q 174 381 225 381 l 174 381 z "},".":{"ha":347,"x_min":34,"x_max":312,"o":"m 174 34 q 81 75 126 34 q 34 174 34 118 q 75 263 34 218 q 174 312 119 312 q 263 271 217 312 q 312 174 312 227 q 271 75 312 115 q 174 34 231 34 l 174 34 z "},"/":{"ha":1040,"x_min":34,"x_max":1006,"o":"m 304 217 q 304 217 304 217 l 304 217 q 304 217 304 217 l 304 217 m 477 391 q 477 391 477 391 l 477 391 q 477 391 477 391 l 477 391 m 651 564 q 651 564 651 564 l 651 564 q 651 564 651 564 l 651 564 m 174 34 q 81 75 126 34 q 34 174 34 118 q 75 263 34 218 q 174 312 119 312 q 216 302 194 312 l 216 302 q 208 347 208 323 q 248 437 208 392 q 347 486 293 486 q 389 476 368 486 l 389 476 q 381 521 381 496 q 422 610 381 566 q 521 659 467 659 q 563 650 541 659 l 563 650 q 555 694 555 670 q 595 784 555 739 q 694 833 640 833 q 736 823 715 833 l 736 823 q 728 868 728 844 q 769 958 728 913 q 868 1006 814 1006 q 958 966 911 1006 q 1006 868 1006 921 q 966 769 1006 810 q 868 728 925 728 q 825 738 845 728 l 825 738 q 833 694 833 716 q 792 595 833 636 q 694 555 751 555 q 651 564 671 555 l 651 564 q 659 521 659 543 q 618 422 659 463 q 521 381 578 381 q 477 391 498 381 l 477 391 q 486 347 486 369 q 445 248 486 289 q 347 208 404 208 q 304 217 324 208 q 312 174 312 195 q 271 75 312 115 q 174 34 231 34 l 174 34 z "},":":{"ha":347,"x_min":34,"x_max":312,"o":"m 174 208 q 81 248 126 208 q 34 347 34 292 q 75 437 34 392 q 174 486 119 486 q 263 445 217 486 q 312 347 312 400 q 271 248 312 289 q 174 208 231 208 l 174 208 m 174 555 q 81 595 126 555 q 34 694 34 639 q 75 784 34 739 q 174 833 119 833 q 263 792 217 833 q 312 694 312 747 q 271 595 312 636 q 174 555 231 555 l 174 555 z "},";":{"ha":347,"x_min":34,"x_max":312,"o":"m 174 208 q 81 248 126 208 q 34 347 34 292 q 75 437 34 392 q 174 486 119 486 q 263 445 217 486 q 312 347 312 400 q 271 248 312 289 q 174 208 231 208 l 174 208 m 174 555 q 81 595 126 555 q 34 694 34 639 q 75 784 34 739 q 174 833 119 833 q 263 792 217 833 q 312 694 312 747 q 271 595 312 636 q 174 555 231 555 l 174 555 z "},"<":{"ha":694,"x_min":34,"x_max":659,"o":"m 389 214 q 389 214 389 214 l 389 214 q 389 214 389 214 l 389 214 m 216 388 q 216 388 216 388 l 216 388 q 216 388 216 388 l 216 388 m 304 564 q 304 564 304 564 l 304 564 q 304 564 304 564 l 304 564 m 521 34 q 429 75 473 34 q 381 174 381 118 q 389 214 381 194 q 347 208 369 208 q 255 248 300 208 q 208 347 208 292 q 216 388 208 368 l 216 388 q 174 381 195 381 q 81 422 126 381 q 34 521 34 465 q 75 610 34 566 q 174 659 119 659 q 216 650 194 659 l 216 650 q 208 694 208 670 q 248 784 208 739 q 347 833 293 833 q 389 823 368 833 l 389 823 q 381 868 381 844 q 422 958 381 913 q 521 1006 467 1006 q 610 966 564 1006 q 659 868 659 921 q 618 769 659 810 q 521 728 578 728 q 477 738 498 728 l 477 738 q 486 694 486 716 q 445 595 486 636 q 347 555 404 555 q 304 564 324 555 q 312 521 312 543 q 305 477 312 498 l 305 477 q 347 486 326 486 q 437 445 391 486 q 486 347 486 400 q 479 304 486 324 l 479 304 q 521 312 499 312 q 610 271 564 312 q 659 174 659 227 q 618 75 659 115 q 521 34 578 34 l 521 34 z "},"=":{"ha":3124,"x_min":34,"x_max":659,"o":"m 263 241 q 263 241 263 241 l 263 241 q 263 241 263 241 l 263 241 m 174 208 q 81 248 126 208 q 34 347 34 292 q 75 437 34 392 q 174 486 119 486 q 259 448 216 486 l 259 448 q 347 486 300 486 q 433 448 389 486 l 433 448 q 521 486 473 486 q 610 445 564 486 q 659 347 659 400 q 618 248 659 289 q 521 208 578 208 q 437 241 477 208 l 437 241 q 347 208 399 208 q 263 241 304 208 l 263 241 q 174 208 225 208 l 174 208 m 437 589 q 437 589 437 589 l 437 589 q 437 589 437 589 l 437 589 m 174 555 q 81 595 126 555 q 34 694 34 639 q 75 784 34 739 q 174 833 119 833 q 259 795 216 833 l 259 795 q 347 833 300 833 q 433 795 389 833 l 433 795 q 521 833 473 833 q 610 792 564 833 q 659 694 659 747 q 618 595 659 636 q 521 555 578 555 q 437 589 477 555 l 437 589 q 347 555 399 555 q 263 589 304 555 l 263 589 q 174 555 225 555 l 174 555 z "},">":{"ha":694,"x_min":34,"x_max":659,"o":"m 304 217 q 304 217 304 217 l 304 217 q 304 217 304 217 l 304 217 m 477 391 q 477 391 477 391 l 477 391 q 477 391 477 391 l 477 391 m 389 562 q 389 562 389 562 l 389 562 q 389 562 389 562 l 389 562 m 174 34 q 81 75 126 34 q 34 174 34 118 q 75 263 34 218 q 174 312 119 312 q 216 302 194 312 l 216 302 q 208 347 208 323 q 248 437 208 392 q 347 486 293 486 q 389 476 368 486 l 389 476 q 381 521 381 496 q 389 562 381 541 q 347 555 369 555 q 255 595 300 555 q 208 694 208 639 q 216 735 208 715 l 216 735 q 174 728 195 728 q 81 769 126 728 q 34 868 34 812 q 75 958 34 913 q 174 1006 119 1006 q 263 966 217 1006 q 312 868 312 921 q 305 825 312 845 l 305 825 q 347 833 326 833 q 437 792 391 833 q 486 694 486 747 q 479 651 486 671 l 479 651 q 521 659 499 659 q 610 618 564 659 q 659 521 659 574 q 618 422 659 463 q 521 381 578 381 q 477 391 498 381 l 477 391 q 486 347 486 369 q 445 248 486 289 q 347 208 404 208 q 304 217 324 208 q 312 174 312 195 q 271 75 312 115 q 174 34 231 34 l 174 34 z "},"?":{"ha":867,"x_min":34,"x_max":833,"o":"m 521 34 q 429 75 473 34 q 381 174 381 118 q 422 263 381 218 q 521 312 467 312 q 610 271 564 312 q 659 174 659 227 q 618 75 659 115 q 521 34 578 34 l 521 34 m 563 909 q 563 909 563 909 l 563 909 q 563 909 563 909 l 563 909 m 437 936 q 437 936 437 936 l 437 936 q 437 936 437 936 l 437 936 m 521 381 q 429 422 473 381 q 381 521 381 465 q 418 606 381 563 l 418 606 q 381 694 381 646 q 422 784 381 739 q 521 833 467 833 q 563 823 541 833 l 563 823 q 555 868 555 844 q 563 909 555 888 l 563 909 q 521 902 543 902 q 437 936 477 902 l 437 936 q 347 902 399 902 q 304 911 324 902 l 304 911 q 312 868 312 890 q 271 769 312 810 q 174 728 231 728 q 81 769 126 728 q 34 868 34 812 q 75 958 34 913 q 174 1006 119 1006 q 216 997 194 1006 l 216 997 q 208 1042 208 1017 q 248 1131 208 1086 q 347 1180 293 1180 q 433 1142 389 1180 l 433 1142 q 521 1180 473 1180 q 610 1139 564 1180 q 659 1042 659 1095 q 652 998 659 1019 l 652 998 q 694 1006 673 1006 q 784 966 738 1006 q 833 868 833 921 q 792 769 833 810 q 694 728 751 728 q 651 738 671 728 l 651 738 q 659 694 659 716 q 625 604 659 642 l 625 604 q 659 521 659 566 q 618 422 659 463 q 521 381 578 381 l 521 381 z "},"@":{"ha":1561,"x_min":34,"x_max":1527,"o":"m 784 68 q 784 68 784 68 l 784 68 q 784 68 784 68 l 784 68 m 958 68 q 958 68 958 68 l 958 68 q 958 68 958 68 l 958 68 m 1345 217 q 1345 217 1345 217 l 1345 217 q 1345 217 1345 217 l 1345 217 m 780 274 q 868 312 821 312 q 910 302 888 312 l 910 302 q 902 347 902 323 q 939 433 902 389 l 939 433 q 902 521 902 472 q 939 606 902 563 l 939 606 q 902 694 902 646 q 910 735 902 715 l 910 735 q 868 728 890 728 q 784 762 825 728 q 694 728 746 728 q 651 738 671 728 l 651 738 q 659 694 659 716 q 625 604 659 642 l 625 604 q 659 521 659 566 q 625 430 659 468 l 625 430 q 659 347 659 392 q 652 304 659 324 l 652 304 q 694 312 673 312 q 780 274 736 312 l 780 274 m 784 762 q 784 762 784 762 l 784 762 q 784 762 784 762 l 784 762 m 1257 1082 l 1257 1082 q 1257 1082 1257 1082 l 1257 1082 q 1257 1082 1257 1082 l 1257 1082 m 304 1085 q 304 1085 304 1085 l 304 1085 q 304 1085 304 1085 l 304 1085 m 610 1109 q 610 1109 610 1109 l 610 1109 q 610 1109 610 1109 l 610 1109 m 958 1109 q 958 1109 958 1109 l 958 1109 q 958 1109 958 1109 l 958 1109 m 174 34 q 81 75 126 34 q 34 174 34 118 q 71 259 34 216 l 71 259 q 34 347 34 298 q 71 433 34 389 l 71 433 q 34 521 34 472 q 71 606 34 563 l 71 606 q 34 694 34 646 q 71 780 34 736 l 71 780 q 34 868 34 819 q 71 954 34 910 l 71 954 q 34 1042 34 993 q 75 1131 34 1086 q 174 1180 119 1180 q 216 1171 194 1180 l 216 1171 q 208 1215 208 1191 q 248 1305 208 1260 q 347 1354 293 1354 q 433 1316 389 1354 l 433 1316 q 521 1354 473 1354 q 606 1316 563 1354 l 606 1316 q 694 1354 647 1354 q 780 1316 736 1354 l 780 1316 q 868 1354 821 1354 q 954 1316 910 1354 l 954 1316 q 1042 1354 994 1354 q 1127 1316 1084 1354 l 1127 1316 q 1215 1354 1168 1354 q 1305 1313 1259 1354 q 1354 1215 1354 1268 q 1347 1172 1354 1192 l 1347 1172 q 1389 1180 1367 1180 q 1478 1139 1432 1180 q 1527 1042 1527 1095 q 1493 951 1527 989 l 1493 951 q 1527 868 1527 913 q 1493 777 1527 815 l 1493 777 q 1527 694 1527 739 q 1493 604 1527 642 l 1493 604 q 1527 521 1527 566 q 1493 430 1527 468 l 1493 430 q 1527 347 1527 392 q 1487 248 1527 289 q 1389 208 1446 208 q 1345 217 1366 208 l 1345 217 q 1354 174 1354 195 q 1313 75 1354 115 q 1215 34 1272 34 q 1131 68 1172 34 l 1131 68 q 1042 34 1093 34 q 958 68 998 34 q 868 34 920 34 q 784 68 825 34 q 694 34 746 34 q 602 75 647 34 q 555 174 555 118 q 563 214 555 194 l 563 214 q 521 208 543 208 q 429 248 473 208 q 381 347 381 292 q 418 433 381 389 l 418 433 q 381 521 381 472 q 418 606 381 563 l 418 606 q 381 694 381 646 q 422 784 381 739 q 521 833 467 833 q 563 823 541 833 l 563 823 q 555 868 555 844 q 595 958 555 913 q 694 1006 640 1006 q 780 968 736 1006 l 780 968 q 868 1006 821 1006 q 958 966 911 1006 q 1006 868 1006 921 q 1000 825 1006 845 l 1000 825 q 1042 833 1020 833 q 1131 792 1085 833 q 1180 694 1180 747 q 1146 604 1180 642 l 1146 604 q 1180 521 1180 566 q 1146 430 1180 468 l 1146 430 q 1180 347 1180 392 q 1173 304 1180 324 l 1173 304 q 1215 312 1194 312 q 1257 302 1236 312 l 1257 302 q 1249 347 1249 323 q 1286 433 1249 389 l 1286 433 q 1249 521 1249 472 q 1286 606 1249 563 l 1286 606 q 1249 694 1249 646 q 1286 780 1249 736 l 1286 780 q 1249 868 1249 819 q 1286 954 1249 910 l 1286 954 q 1249 1042 1249 993 q 1257 1082 1249 1062 l 1257 1082 q 1215 1076 1237 1076 q 1131 1109 1172 1076 l 1131 1109 q 1042 1076 1093 1076 q 958 1109 998 1076 q 868 1076 920 1076 q 784 1109 825 1076 l 784 1109 q 694 1076 746 1076 q 610 1109 651 1076 q 521 1076 572 1076 q 437 1109 477 1076 l 437 1109 q 347 1076 399 1076 q 304 1085 324 1076 l 304 1085 q 312 1042 312 1063 q 278 951 312 989 l 278 951 q 312 868 312 913 q 278 777 312 815 l 278 777 q 312 694 312 739 q 278 604 312 642 l 278 604 q 312 521 312 566 q 278 430 312 468 l 278 430 q 312 347 312 392 q 278 256 312 294 l 278 256 q 312 174 312 218 q 271 75 312 115 q 174 34 231 34 l 174 34 z "},"A":{"ha":1040,"x_min":34,"x_max":1006,"o":"m 736 214 q 736 214 736 214 l 736 214 q 736 214 736 214 l 736 214 m 304 217 q 304 217 304 217 l 304 217 q 304 217 304 217 l 304 217 m 610 241 q 610 241 610 241 l 610 241 q 610 241 610 241 l 610 241 m 736 562 q 736 562 736 562 l 736 562 q 736 562 736 562 l 736 562 m 563 735 q 563 735 563 735 l 563 735 q 563 735 563 735 l 563 735 m 433 448 q 521 486 473 486 q 606 448 563 486 l 606 448 q 694 486 647 486 q 736 476 715 486 l 736 476 q 728 521 728 496 q 736 562 728 541 l 736 562 q 694 555 716 555 q 602 595 647 555 q 555 694 555 639 q 563 735 555 715 l 563 735 q 521 728 543 728 q 477 738 498 728 l 477 738 q 486 694 486 716 q 445 595 486 636 q 347 555 404 555 q 304 564 324 555 l 304 564 q 312 521 312 543 q 305 477 312 498 l 305 477 q 347 486 326 486 q 433 448 389 486 l 433 448 m 477 738 q 477 738 477 738 l 477 738 q 477 738 477 738 l 477 738 m 174 34 q 81 75 126 34 q 34 174 34 118 q 71 259 34 216 l 71 259 q 34 347 34 298 q 71 433 34 389 l 71 433 q 34 521 34 472 q 75 610 34 566 q 174 659 119 659 q 216 650 194 659 l 216 650 q 208 694 208 670 q 248 784 208 739 q 347 833 293 833 q 389 823 368 833 l 389 823 q 381 868 381 844 q 422 958 381 913 q 521 1006 467 1006 q 610 966 564 1006 q 659 868 659 921 q 652 825 659 845 l 652 825 q 694 833 673 833 q 784 792 738 833 q 833 694 833 747 q 826 651 833 671 l 826 651 q 868 659 846 659 q 958 618 911 659 q 1006 521 1006 574 q 972 430 1006 468 l 972 430 q 1006 347 1006 392 q 972 256 1006 294 l 972 256 q 1006 174 1006 218 q 966 75 1006 115 q 868 34 925 34 q 776 75 821 34 q 728 174 728 118 q 736 214 728 194 l 736 214 q 694 208 716 208 q 610 241 651 208 l 610 241 q 521 208 572 208 q 437 241 477 208 l 437 241 q 347 208 399 208 q 304 217 324 208 l 304 217 q 312 174 312 195 q 271 75 312 115 q 174 34 231 34 l 174 34 z "},"B":{"ha":867,"x_min":34,"x_max":833,"o":"m 263 68 q 263 68 263 68 l 263 68 q 263 68 263 68 l 263 68 m 651 217 q 651 217 651 217 l 651 217 q 651 217 651 217 l 651 217 m 563 388 q 563 388 563 388 l 563 388 q 563 388 563 388 l 563 388 m 304 391 q 304 391 304 391 l 304 391 q 304 391 304 391 l 304 391 m 433 274 q 521 312 473 312 q 563 302 541 312 l 563 302 q 555 347 555 323 q 563 388 555 368 l 563 388 q 521 381 543 381 q 437 415 477 381 q 347 381 399 381 q 304 391 324 381 l 304 391 q 312 347 312 369 q 305 304 312 324 l 305 304 q 347 312 326 312 q 433 274 389 312 l 433 274 m 437 415 q 437 415 437 415 l 437 415 q 437 415 437 415 l 437 415 m 563 735 q 563 735 563 735 l 563 735 q 563 735 563 735 l 563 735 m 304 738 q 304 738 304 738 l 304 738 q 304 738 304 738 l 304 738 m 433 621 q 521 659 473 659 q 563 650 541 659 l 563 650 q 555 694 555 670 q 563 735 555 715 l 563 735 q 521 728 543 728 q 437 762 477 728 l 437 762 q 347 728 399 728 q 304 738 324 728 l 304 738 q 312 694 312 716 q 305 651 312 671 l 305 651 q 347 659 326 659 q 433 621 389 659 l 433 621 m 437 762 q 437 762 437 762 l 437 762 q 437 762 437 762 l 437 762 m 174 34 q 81 75 126 34 q 34 174 34 118 q 71 259 34 216 l 71 259 q 34 347 34 298 q 71 433 34 389 l 71 433 q 34 521 34 472 q 71 606 34 563 l 71 606 q 34 694 34 646 q 71 780 34 736 l 71 780 q 34 868 34 819 q 75 958 34 913 q 174 1006 119 1006 q 259 968 216 1006 l 259 968 q 347 1006 300 1006 q 433 968 389 1006 l 433 968 q 521 1006 473 1006 q 610 966 564 1006 q 659 868 659 921 q 652 825 659 845 l 652 825 q 694 833 673 833 q 784 792 738 833 q 833 694 833 747 q 792 595 833 636 q 694 555 751 555 q 651 564 671 555 l 651 564 q 659 521 659 543 q 652 477 659 498 l 652 477 q 694 486 673 486 q 784 445 738 486 q 833 347 833 400 q 792 248 833 289 q 694 208 751 208 q 651 217 671 208 l 651 217 q 659 174 659 195 q 618 75 659 115 q 521 34 578 34 q 437 68 477 34 l 437 68 q 347 34 399 34 q 263 68 304 34 l 263 68 q 174 34 225 34 l 174 34 z "},"C":{"ha":867,"x_min":34,"x_max":833,"o":"m 437 68 q 437 68 437 68 l 437 68 q 437 68 437 68 l 437 68 m 216 214 q 216 214 216 214 l 216 214 q 216 214 216 214 l 216 214 m 304 738 q 304 738 304 738 l 304 738 q 304 738 304 738 l 304 738 m 437 762 q 437 762 437 762 l 437 762 q 437 762 437 762 l 437 762 m 347 34 q 255 75 300 34 q 208 174 208 118 q 216 214 208 194 l 216 214 q 174 208 195 208 q 81 248 126 208 q 34 347 34 292 q 71 433 34 389 l 71 433 q 34 521 34 472 q 71 606 34 563 l 71 606 q 34 694 34 646 q 75 784 34 739 q 174 833 119 833 q 216 823 194 833 l 216 823 q 208 868 208 844 q 248 958 208 913 q 347 1006 293 1006 q 433 968 389 1006 l 433 968 q 521 1006 473 1006 q 606 968 563 1006 l 606 968 q 694 1006 647 1006 q 784 966 738 1006 q 833 868 833 921 q 792 769 833 810 q 694 728 751 728 q 610 762 651 728 l 610 762 q 521 728 572 728 q 437 762 477 728 l 437 762 q 347 728 399 728 q 304 738 324 728 l 304 738 q 312 694 312 716 q 278 604 312 642 l 278 604 q 312 521 312 566 q 278 430 312 468 l 278 430 q 312 347 312 392 q 305 304 312 324 l 305 304 q 347 312 326 312 q 433 274 389 312 l 433 274 q 521 312 473 312 q 606 274 563 312 l 606 274 q 694 312 647 312 q 784 271 738 312 q 833 174 833 227 q 792 75 833 115 q 694 34 751 34 q 610 68 651 34 l 610 68 q 521 34 572 34 q 437 68 477 34 q 347 34 399 34 l 347 34 z "},"D":{"ha":867,"x_min":34,"x_max":833,"o":"m 263 68 q 263 68 263 68 l 263 68 q 263 68 263 68 l 263 68 m 651 217 q 651 217 651 217 l 651 217 q 651 217 651 217 l 651 217 m 563 735 q 563 735 563 735 l 563 735 q 563 735 563 735 l 563 735 m 433 274 q 521 312 473 312 q 563 302 541 312 l 563 302 q 555 347 555 323 q 591 433 555 389 l 591 433 q 555 521 555 472 q 591 606 555 563 l 591 606 q 555 694 555 646 q 563 735 555 715 l 563 735 q 521 728 543 728 q 437 762 477 728 q 347 728 399 728 q 304 738 324 728 l 304 738 q 312 694 312 716 q 278 604 312 642 l 278 604 q 312 521 312 566 q 278 430 312 468 l 278 430 q 312 347 312 392 q 305 304 312 324 l 305 304 q 347 312 326 312 q 433 274 389 312 l 433 274 m 437 762 q 437 762 437 762 l 437 762 q 437 762 437 762 l 437 762 m 174 34 q 81 75 126 34 q 34 174 34 118 q 71 259 34 216 l 71 259 q 34 347 34 298 q 71 433 34 389 l 71 433 q 34 521 34 472 q 71 606 34 563 l 71 606 q 34 694 34 646 q 71 780 34 736 l 71 780 q 34 868 34 819 q 75 958 34 913 q 174 1006 119 1006 q 259 968 216 1006 l 259 968 q 347 1006 300 1006 q 433 968 389 1006 l 433 968 q 521 1006 473 1006 q 610 966 564 1006 q 659 868 659 921 q 652 825 659 845 l 652 825 q 694 833 673 833 q 784 792 738 833 q 833 694 833 747 q 799 604 833 642 l 799 604 q 833 521 833 566 q 799 430 833 468 l 799 430 q 833 347 833 392 q 792 248 833 289 q 694 208 751 208 q 651 217 671 208 l 651 217 q 659 174 659 195 q 618 75 659 115 q 521 34 578 34 q 437 68 477 34 l 437 68 q 347 34 399 34 q 263 68 304 34 l 263 68 q 174 34 225 34 l 174 34 z "},"E":{"ha":867,"x_min":34,"x_max":833,"o":"m 263 68 q 263 68 263 68 l 263 68 q 263 68 263 68 l 263 68 m 610 68 q 610 68 610 68 l 610 68 q 610 68 610 68 l 610 68 m 304 391 q 304 391 304 391 l 304 391 q 304 391 304 391 l 304 391 m 437 415 q 437 415 437 415 l 437 415 q 437 415 437 415 l 437 415 m 304 738 q 304 738 304 738 l 304 738 q 304 738 304 738 l 304 738 m 437 762 q 437 762 437 762 l 437 762 q 437 762 437 762 l 437 762 m 174 34 q 81 75 126 34 q 34 174 34 118 q 71 259 34 216 l 71 259 q 34 347 34 298 q 71 433 34 389 l 71 433 q 34 521 34 472 q 71 606 34 563 l 71 606 q 34 694 34 646 q 71 780 34 736 l 71 780 q 34 868 34 819 q 75 958 34 913 q 174 1006 119 1006 q 259 968 216 1006 l 259 968 q 347 1006 300 1006 q 433 968 389 1006 l 433 968 q 521 1006 473 1006 q 606 968 563 1006 l 606 968 q 694 1006 647 1006 q 784 966 738 1006 q 833 868 833 921 q 792 769 833 810 q 694 728 751 728 q 610 762 651 728 l 610 762 q 521 728 572 728 q 437 762 477 728 l 437 762 q 347 728 399 728 q 304 738 324 728 l 304 738 q 312 694 312 716 q 305 651 312 671 l 305 651 q 347 659 326 659 q 433 621 389 659 l 433 621 q 521 659 473 659 q 610 618 564 659 q 659 521 659 574 q 618 422 659 463 q 521 381 578 381 q 437 415 477 381 q 347 381 399 381 q 304 391 324 381 l 304 391 q 312 347 312 369 q 305 304 312 324 l 305 304 q 347 312 326 312 q 433 274 389 312 l 433 274 q 521 312 473 312 q 606 274 563 312 l 606 274 q 694 312 647 312 q 784 271 738 312 q 833 174 833 227 q 792 75 833 115 q 694 34 751 34 q 610 68 651 34 l 610 68 q 521 34 572 34 q 437 68 477 34 l 437 68 q 347 34 399 34 q 263 68 304 34 q 174 34 225 34 l 174 34 z "},"F":{"ha":867,"x_min":34,"x_max":833,"o":"m 304 391 q 304 391 304 391 l 304 391 q 304 391 304 391 l 304 391 m 437 415 q 437 415 437 415 l 437 415 q 437 415 437 415 l 437 415 m 304 738 q 304 738 304 738 l 304 738 q 304 738 304 738 l 304 738 m 610 762 q 610 762 610 762 l 610 762 q 610 762 610 762 l 610 762 m 174 34 q 81 75 126 34 q 34 174 34 118 q 71 259 34 216 l 71 259 q 34 347 34 298 q 71 433 34 389 l 71 433 q 34 521 34 472 q 71 606 34 563 l 71 606 q 34 694 34 646 q 71 780 34 736 l 71 780 q 34 868 34 819 q 75 958 34 913 q 174 1006 119 1006 q 259 968 216 1006 l 259 968 q 347 1006 300 1006 q 433 968 389 1006 l 433 968 q 521 1006 473 1006 q 606 968 563 1006 l 606 968 q 694 1006 647 1006 q 784 966 738 1006 q 833 868 833 921 q 792 769 833 810 q 694 728 751 728 q 610 762 651 728 l 610 762 q 521 728 572 728 q 437 762 477 728 l 437 762 q 347 728 399 728 q 304 738 324 728 q 312 694 312 716 q 305 651 312 671 l 305 651 q 347 659 326 659 q 433 621 389 659 l 433 621 q 521 659 473 659 q 610 618 564 659 q 659 521 659 574 q 618 422 659 463 q 521 381 578 381 q 437 415 477 381 q 347 381 399 381 q 304 391 324 381 q 312 347 312 369 q 278 256 312 294 l 278 256 q 312 174 312 218 q 271 75 312 115 q 174 34 231 34 l 174 34 z "},"G":{"ha":867,"x_min":34,"x_max":833,"o":"m 437 68 q 437 68 437 68 l 437 68 q 437 68 437 68 l 437 68 m 216 214 q 216 214 216 214 l 216 214 q 216 214 216 214 l 216 214 m 563 388 q 563 388 563 388 l 563 388 q 563 388 563 388 l 563 388 m 304 738 q 304 738 304 738 l 304 738 q 304 738 304 738 l 304 738 m 437 762 q 437 762 437 762 l 437 762 q 437 762 437 762 l 437 762 m 610 762 q 610 762 610 762 l 610 762 q 610 762 610 762 l 610 762 m 347 34 q 255 75 300 34 q 208 174 208 118 q 216 214 208 194 l 216 214 q 174 208 195 208 q 81 248 126 208 q 34 347 34 292 q 71 433 34 389 l 71 433 q 34 521 34 472 q 71 606 34 563 l 71 606 q 34 694 34 646 q 75 784 34 739 q 174 833 119 833 q 216 823 194 833 l 216 823 q 208 868 208 844 q 248 958 208 913 q 347 1006 293 1006 q 433 968 389 1006 l 433 968 q 521 1006 473 1006 q 606 968 563 1006 l 606 968 q 694 1006 647 1006 q 784 966 738 1006 q 833 868 833 921 q 792 769 833 810 q 694 728 751 728 q 610 762 651 728 q 521 728 572 728 q 437 762 477 728 l 437 762 q 347 728 399 728 q 304 738 324 728 l 304 738 q 312 694 312 716 q 278 604 312 642 l 278 604 q 312 521 312 566 q 278 430 312 468 l 278 430 q 312 347 312 392 q 305 304 312 324 l 305 304 q 347 312 326 312 q 433 274 389 312 l 433 274 q 521 312 473 312 q 563 302 541 312 l 563 302 q 555 347 555 323 q 563 388 555 368 l 563 388 q 521 381 543 381 q 429 422 473 381 q 381 521 381 465 q 422 610 381 566 q 521 659 467 659 q 606 621 563 659 l 606 621 q 694 659 647 659 q 784 618 738 659 q 833 521 833 574 q 799 430 833 468 l 799 430 q 833 347 833 392 q 799 256 833 294 l 799 256 q 833 174 833 218 q 792 75 833 115 q 694 34 751 34 q 610 68 651 34 l 610 68 q 521 34 572 34 q 437 68 477 34 q 347 34 399 34 l 347 34 z "},"H":{"ha":867,"x_min":34,"x_max":833,"o":"m 563 388 q 563 388 563 388 l 563 388 q 563 388 563 388 l 563 388 m 304 391 q 304 391 304 391 l 304 391 q 304 391 304 391 l 304 391 m 174 34 q 81 75 126 34 q 34 174 34 118 q 71 259 34 216 l 71 259 q 34 347 34 298 q 71 433 34 389 l 71 433 q 34 521 34 472 q 71 606 34 563 l 71 606 q 34 694 34 646 q 71 780 34 736 l 71 780 q 34 868 34 819 q 75 958 34 913 q 174 1006 119 1006 q 263 966 217 1006 q 312 868 312 921 q 278 777 312 815 l 278 777 q 312 694 312 739 q 305 651 312 671 l 305 651 q 347 659 326 659 q 433 621 389 659 l 433 621 q 521 659 473 659 q 563 650 541 659 l 563 650 q 555 694 555 670 q 591 780 555 736 l 591 780 q 555 868 555 819 q 595 958 555 913 q 694 1006 640 1006 q 784 966 738 1006 q 833 868 833 921 q 799 777 833 815 l 799 777 q 833 694 833 739 q 799 604 833 642 l 799 604 q 833 521 833 566 q 799 430 833 468 l 799 430 q 833 347 833 392 q 799 256 833 294 l 799 256 q 833 174 833 218 q 792 75 833 115 q 694 34 751 34 q 602 75 647 34 q 555 174 555 118 q 591 259 555 216 l 591 259 q 555 347 555 298 q 563 388 555 368 l 563 388 q 521 381 543 381 q 437 415 477 381 l 437 415 q 347 381 399 381 q 304 391 324 381 l 304 391 q 312 347 312 369 q 278 256 312 294 l 278 256 q 312 174 312 218 q 271 75 312 115 q 174 34 231 34 l 174 34 z "},"I":{"ha":694,"x_min":34,"x_max":659,"o":"m 263 68 q 263 68 263 68 l 263 68 q 263 68 263 68 l 263 68 m 216 735 q 216 735 216 735 l 216 735 q 216 735 216 735 l 216 735 m 174 34 q 81 75 126 34 q 34 174 34 118 q 75 263 34 218 q 174 312 119 312 q 216 302 194 312 l 216 302 q 208 347 208 323 q 244 433 208 389 l 244 433 q 208 521 208 472 q 244 606 208 563 l 244 606 q 208 694 208 646 q 216 735 208 715 l 216 735 q 174 728 195 728 q 81 769 126 728 q 34 868 34 812 q 75 958 34 913 q 174 1006 119 1006 q 259 968 216 1006 l 259 968 q 347 1006 300 1006 q 433 968 389 1006 l 433 968 q 521 1006 473 1006 q 610 966 564 1006 q 659 868 659 921 q 618 769 659 810 q 521 728 578 728 q 477 738 498 728 l 477 738 q 486 694 486 716 q 452 604 486 642 l 452 604 q 486 521 486 566 q 452 430 486 468 l 452 430 q 486 347 486 392 q 479 304 486 324 l 479 304 q 521 312 499 312 q 610 271 564 312 q 659 174 659 227 q 618 75 659 115 q 521 34 578 34 q 437 68 477 34 l 437 68 q 347 34 399 34 q 263 68 304 34 l 263 68 q 174 34 225 34 l 174 34 z "},"J":{"ha":867,"x_min":34,"x_max":833,"o":"m 216 214 q 216 214 216 214 l 216 214 q 216 214 216 214 l 216 214 m 477 217 q 477 217 477 217 l 477 217 q 477 217 477 217 l 477 217 m 389 735 q 389 735 389 735 l 389 735 q 389 735 389 735 l 389 735 m 651 738 q 651 738 651 738 l 651 738 q 651 738 651 738 l 651 738 m 347 34 q 255 75 300 34 q 208 174 208 118 q 216 214 208 194 l 216 214 q 174 208 195 208 q 81 248 126 208 q 34 347 34 292 q 75 437 34 392 q 174 486 119 486 q 263 445 217 486 q 312 347 312 400 q 305 304 312 324 l 305 304 q 347 312 326 312 q 389 302 368 312 l 389 302 q 381 347 381 323 q 418 433 381 389 l 418 433 q 381 521 381 472 q 418 606 381 563 l 418 606 q 381 694 381 646 q 389 735 381 715 l 389 735 q 347 728 369 728 q 255 769 300 728 q 208 868 208 812 q 248 958 208 913 q 347 1006 293 1006 q 433 968 389 1006 l 433 968 q 521 1006 473 1006 q 606 968 563 1006 l 606 968 q 694 1006 647 1006 q 784 966 738 1006 q 833 868 833 921 q 792 769 833 810 q 694 728 751 728 q 651 738 671 728 l 651 738 q 659 694 659 716 q 625 604 659 642 l 625 604 q 659 521 659 566 q 625 430 659 468 l 625 430 q 659 347 659 392 q 618 248 659 289 q 521 208 578 208 q 477 217 498 208 l 477 217 q 486 174 486 195 q 445 75 486 115 q 347 34 404 34 l 347 34 z "},"K":{"ha":867,"x_min":34,"x_max":833,"o":"m 563 214 q 563 214 563 214 l 563 214 q 563 214 563 214 l 563 214 m 389 388 q 389 388 389 388 l 389 388 q 389 388 389 388 l 389 388 m 304 391 q 304 391 304 391 l 304 391 q 304 391 304 391 l 304 391 m 477 564 q 477 564 477 564 l 477 564 q 477 564 477 564 l 477 564 m 174 34 q 81 75 126 34 q 34 174 34 118 q 71 259 34 216 l 71 259 q 34 347 34 298 q 71 433 34 389 l 71 433 q 34 521 34 472 q 71 606 34 563 l 71 606 q 34 694 34 646 q 71 780 34 736 l 71 780 q 34 868 34 819 q 75 958 34 913 q 174 1006 119 1006 q 263 966 217 1006 q 312 868 312 921 q 278 777 312 815 l 278 777 q 312 694 312 739 q 305 651 312 671 l 305 651 q 347 659 326 659 q 389 650 368 659 l 389 650 q 381 694 381 670 q 422 784 381 739 q 521 833 467 833 q 563 823 541 833 l 563 823 q 555 868 555 844 q 595 958 555 913 q 694 1006 640 1006 q 784 966 738 1006 q 833 868 833 921 q 792 769 833 810 q 694 728 751 728 q 651 738 671 728 l 651 738 q 659 694 659 716 q 618 595 659 636 q 521 555 578 555 q 477 564 498 555 l 477 564 q 486 521 486 543 q 479 477 486 498 l 479 477 q 521 486 499 486 q 610 445 564 486 q 659 347 659 400 q 652 304 659 324 l 652 304 q 694 312 673 312 q 784 271 738 312 q 833 174 833 227 q 792 75 833 115 q 694 34 751 34 q 602 75 647 34 q 555 174 555 118 q 563 214 555 194 q 521 208 543 208 q 429 248 473 208 q 381 347 381 292 q 389 388 381 368 l 389 388 q 347 381 369 381 q 304 391 324 381 l 304 391 q 312 347 312 369 q 278 256 312 294 l 278 256 q 312 174 312 218 q 271 75 312 115 q 174 34 231 34 l 174 34 z "},"L":{"ha":867,"x_min":34,"x_max":833,"o":"m 263 68 q 263 68 263 68 l 263 68 q 263 68 263 68 l 263 68 m 610 68 q 610 68 610 68 l 610 68 q 610 68 610 68 l 610 68 m 174 34 q 81 75 126 34 q 34 174 34 118 q 71 259 34 216 l 71 259 q 34 347 34 298 q 71 433 34 389 l 71 433 q 34 521 34 472 q 71 606 34 563 l 71 606 q 34 694 34 646 q 71 780 34 736 l 71 780 q 34 868 34 819 q 75 958 34 913 q 174 1006 119 1006 q 263 966 217 1006 q 312 868 312 921 q 278 777 312 815 l 278 777 q 312 694 312 739 q 278 604 312 642 l 278 604 q 312 521 312 566 q 278 430 312 468 l 278 430 q 312 347 312 392 q 305 304 312 324 l 305 304 q 347 312 326 312 q 433 274 389 312 l 433 274 q 521 312 473 312 q 606 274 563 312 l 606 274 q 694 312 647 312 q 784 271 738 312 q 833 174 833 227 q 792 75 833 115 q 694 34 751 34 q 610 68 651 34 l 610 68 q 521 34 572 34 q 437 68 477 34 l 437 68 q 347 34 399 34 q 263 68 304 34 q 174 34 225 34 l 174 34 z "},"M":{"ha":1040,"x_min":34,"x_max":1006,"o":"m 174 34 q 81 75 126 34 q 34 174 34 118 q 71 259 34 216 l 71 259 q 34 347 34 298 q 71 433 34 389 l 71 433 q 34 521 34 472 q 71 606 34 563 l 71 606 q 34 694 34 646 q 71 780 34 736 l 71 780 q 34 868 34 819 q 75 958 34 913 q 174 1006 119 1006 q 263 966 217 1006 q 312 868 312 921 q 305 825 312 845 l 305 825 q 347 833 326 833 q 437 792 391 833 q 486 694 486 747 q 479 651 486 671 l 479 651 q 521 659 499 659 q 563 650 541 659 l 563 650 q 555 694 555 670 q 595 784 555 739 q 694 833 640 833 q 736 823 715 833 l 736 823 q 728 868 728 844 q 769 958 728 913 q 868 1006 814 1006 q 958 966 911 1006 q 1006 868 1006 921 q 972 777 1006 815 l 972 777 q 1006 694 1006 739 q 972 604 1006 642 l 972 604 q 1006 521 1006 566 q 972 430 1006 468 l 972 430 q 1006 347 1006 392 q 972 256 1006 294 l 972 256 q 1006 174 1006 218 q 966 75 1006 115 q 868 34 925 34 q 776 75 821 34 q 728 174 728 118 q 765 259 728 216 l 765 259 q 728 347 728 298 q 765 433 728 389 l 765 433 q 728 521 728 472 q 736 562 728 541 q 694 555 716 555 q 651 564 671 555 l 651 564 q 659 521 659 543 q 618 422 659 463 q 521 381 578 381 q 429 422 473 381 q 381 521 381 465 q 389 562 381 541 q 347 555 369 555 q 304 564 324 555 l 304 564 q 312 521 312 543 q 278 430 312 468 l 278 430 q 312 347 312 392 q 278 256 312 294 l 278 256 q 312 174 312 218 q 271 75 312 115 q 174 34 231 34 l 174 34 z "},"N":{"ha":1040,"x_min":34,"x_max":1006,"o":"m 736 214 q 736 214 736 214 l 736 214 q 736 214 736 214 l 736 214 m 563 388 q 563 388 563 388 l 563 388 q 563 388 563 388 l 563 388 m 174 34 q 81 75 126 34 q 34 174 34 118 q 71 259 34 216 l 71 259 q 34 347 34 298 q 71 433 34 389 l 71 433 q 34 521 34 472 q 71 606 34 563 l 71 606 q 34 694 34 646 q 71 780 34 736 l 71 780 q 34 868 34 819 q 75 958 34 913 q 174 1006 119 1006 q 263 966 217 1006 q 312 868 312 921 q 305 825 312 845 l 305 825 q 347 833 326 833 q 437 792 391 833 q 486 694 486 747 q 479 651 486 671 l 479 651 q 521 659 499 659 q 610 618 564 659 q 659 521 659 574 q 652 477 659 498 l 652 477 q 694 486 673 486 q 736 476 715 486 l 736 476 q 728 521 728 496 q 765 606 728 563 l 765 606 q 728 694 728 646 q 765 780 728 736 l 765 780 q 728 868 728 819 q 769 958 728 913 q 868 1006 814 1006 q 958 966 911 1006 q 1006 868 1006 921 q 972 777 1006 815 l 972 777 q 1006 694 1006 739 q 972 604 1006 642 l 972 604 q 1006 521 1006 566 q 972 430 1006 468 l 972 430 q 1006 347 1006 392 q 972 256 1006 294 l 972 256 q 1006 174 1006 218 q 966 75 1006 115 q 868 34 925 34 q 776 75 821 34 q 728 174 728 118 q 736 214 728 194 l 736 214 q 694 208 716 208 q 602 248 647 208 q 555 347 555 292 q 563 388 555 368 l 563 388 q 521 381 543 381 q 429 422 473 381 q 381 521 381 465 q 389 562 381 541 l 389 562 q 347 555 369 555 q 304 564 324 555 l 304 564 q 312 521 312 543 q 278 430 312 468 l 278 430 q 312 347 312 392 q 278 256 312 294 l 278 256 q 312 174 312 218 q 271 75 312 115 q 174 34 231 34 l 174 34 z "},"O":{"ha":867,"x_min":34,"x_max":833,"o":"m 437 68 q 437 68 437 68 l 437 68 q 437 68 437 68 l 437 68 m 216 214 q 216 214 216 214 l 216 214 q 216 214 216 214 l 216 214 m 651 217 q 651 217 651 217 l 651 217 q 651 217 651 217 l 651 217 m 433 274 q 521 312 473 312 q 563 302 541 312 l 563 302 q 555 347 555 323 q 591 433 555 389 l 591 433 q 555 521 555 472 q 591 606 555 563 l 591 606 q 555 694 555 646 q 563 735 555 715 l 563 735 q 521 728 543 728 q 437 762 477 728 l 437 762 q 347 728 399 728 q 304 738 324 728 l 304 738 q 312 694 312 716 q 278 604 312 642 l 278 604 q 312 521 312 566 q 278 430 312 468 l 278 430 q 312 347 312 392 q 305 304 312 324 l 305 304 q 347 312 326 312 q 433 274 389 312 l 433 274 m 437 762 q 437 762 437 762 l 437 762 q 437 762 437 762 l 437 762 m 347 34 q 255 75 300 34 q 208 174 208 118 q 216 214 208 194 l 216 214 q 174 208 195 208 q 81 248 126 208 q 34 347 34 292 q 71 433 34 389 l 71 433 q 34 521 34 472 q 71 606 34 563 l 71 606 q 34 694 34 646 q 75 784 34 739 q 174 833 119 833 q 216 823 194 833 l 216 823 q 208 868 208 844 q 248 958 208 913 q 347 1006 293 1006 q 433 968 389 1006 l 433 968 q 521 1006 473 1006 q 610 966 564 1006 q 659 868 659 921 q 652 825 659 845 l 652 825 q 694 833 673 833 q 784 792 738 833 q 833 694 833 747 q 799 604 833 642 l 799 604 q 833 521 833 566 q 799 430 833 468 l 799 430 q 833 347 833 392 q 792 248 833 289 q 694 208 751 208 q 651 217 671 208 l 651 217 q 659 174 659 195 q 618 75 659 115 q 521 34 578 34 q 437 68 477 34 l 437 68 q 347 34 399 34 l 347 34 z "},"P":{"ha":867,"x_min":34,"x_max":833,"o":"m 304 391 q 304 391 304 391 l 304 391 q 304 391 304 391 l 304 391 m 437 415 q 437 415 437 415 l 437 415 q 437 415 437 415 l 437 415 m 651 564 q 651 564 651 564 l 651 564 q 651 564 651 564 l 651 564 m 433 621 q 521 659 473 659 q 563 650 541 659 l 563 650 q 555 694 555 670 q 563 735 555 715 l 563 735 q 521 728 543 728 q 437 762 477 728 l 437 762 q 347 728 399 728 q 304 738 324 728 l 304 738 q 312 694 312 716 q 305 651 312 671 l 305 651 q 347 659 326 659 q 433 621 389 659 l 433 621 m 437 762 q 437 762 437 762 l 437 762 q 437 762 437 762 l 437 762 m 174 34 q 81 75 126 34 q 34 174 34 118 q 71 259 34 216 l 71 259 q 34 347 34 298 q 71 433 34 389 l 71 433 q 34 521 34 472 q 71 606 34 563 l 71 606 q 34 694 34 646 q 71 780 34 736 l 71 780 q 34 868 34 819 q 75 958 34 913 q 174 1006 119 1006 q 259 968 216 1006 l 259 968 q 347 1006 300 1006 q 433 968 389 1006 l 433 968 q 521 1006 473 1006 q 610 966 564 1006 q 659 868 659 921 q 652 825 659 845 l 652 825 q 694 833 673 833 q 784 792 738 833 q 833 694 833 747 q 792 595 833 636 q 694 555 751 555 q 651 564 671 555 l 651 564 q 659 521 659 543 q 618 422 659 463 q 521 381 578 381 q 437 415 477 381 q 347 381 399 381 q 304 391 324 381 q 312 347 312 369 q 278 256 312 294 l 278 256 q 312 174 312 218 q 271 75 312 115 q 174 34 231 34 l 174 34 z "},"Q":{"ha":867,"x_min":34,"x_max":833,"o":"m 437 68 q 437 68 437 68 l 437 68 q 437 68 437 68 l 437 68 m 216 214 q 216 214 216 214 l 216 214 q 216 214 216 214 l 216 214 m 563 735 q 563 735 563 735 l 563 735 q 563 735 563 735 l 563 735 m 304 738 q 304 738 304 738 l 304 738 q 304 738 304 738 l 304 738 m 389 302 q 381 347 381 323 q 422 437 381 392 q 521 486 467 486 q 563 476 541 486 l 563 476 q 555 521 555 496 q 591 606 555 563 l 591 606 q 555 694 555 646 q 563 735 555 715 l 563 735 q 521 728 543 728 q 437 762 477 728 l 437 762 q 347 728 399 728 q 304 738 324 728 l 304 738 q 312 694 312 716 q 278 604 312 642 l 278 604 q 312 521 312 566 q 278 430 312 468 l 278 430 q 312 347 312 392 q 305 304 312 324 l 305 304 q 347 312 326 312 q 389 302 368 312 l 389 302 m 437 762 q 437 762 437 762 l 437 762 q 437 762 437 762 l 437 762 m 347 34 q 255 75 300 34 q 208 174 208 118 q 216 214 208 194 l 216 214 q 174 208 195 208 q 81 248 126 208 q 34 347 34 292 q 71 433 34 389 l 71 433 q 34 521 34 472 q 71 606 34 563 l 71 606 q 34 694 34 646 q 75 784 34 739 q 174 833 119 833 q 216 823 194 833 l 216 823 q 208 868 208 844 q 248 958 208 913 q 347 1006 293 1006 q 433 968 389 1006 l 433 968 q 521 1006 473 1006 q 610 966 564 1006 q 659 868 659 921 q 652 825 659 845 l 652 825 q 694 833 673 833 q 784 792 738 833 q 833 694 833 747 q 799 604 833 642 l 799 604 q 833 521 833 566 q 799 430 833 468 l 799 430 q 833 347 833 392 q 799 256 833 294 l 799 256 q 833 174 833 218 q 792 75 833 115 q 694 34 751 34 q 610 68 651 34 l 610 68 q 521 34 572 34 q 437 68 477 34 q 347 34 399 34 l 347 34 z "},"R":{"ha":867,"x_min":34,"x_max":833,"o":"m 563 214 q 563 214 563 214 l 563 214 q 563 214 563 214 l 563 214 m 389 388 q 389 388 389 388 l 389 388 q 389 388 389 388 l 389 388 m 304 391 q 304 391 304 391 l 304 391 q 304 391 304 391 l 304 391 m 563 735 q 563 735 563 735 l 563 735 q 563 735 563 735 l 563 735 m 433 621 q 521 659 473 659 q 563 650 541 659 l 563 650 q 555 694 555 670 q 563 735 555 715 l 563 735 q 521 728 543 728 q 437 762 477 728 q 347 728 399 728 q 304 738 324 728 l 304 738 q 312 694 312 716 q 305 651 312 671 l 305 651 q 347 659 326 659 q 433 621 389 659 l 433 621 m 437 762 q 437 762 437 762 l 437 762 q 437 762 437 762 l 437 762 m 174 34 q 81 75 126 34 q 34 174 34 118 q 71 259 34 216 l 71 259 q 34 347 34 298 q 71 433 34 389 l 71 433 q 34 521 34 472 q 71 606 34 563 l 71 606 q 34 694 34 646 q 71 780 34 736 l 71 780 q 34 868 34 819 q 75 958 34 913 q 174 1006 119 1006 q 259 968 216 1006 l 259 968 q 347 1006 300 1006 q 433 968 389 1006 l 433 968 q 521 1006 473 1006 q 610 966 564 1006 q 659 868 659 921 q 652 825 659 845 l 652 825 q 694 833 673 833 q 784 792 738 833 q 833 694 833 747 q 792 595 833 636 q 694 555 751 555 q 651 564 671 555 l 651 564 q 659 521 659 543 q 625 430 659 468 l 625 430 q 659 347 659 392 q 652 304 659 324 l 652 304 q 694 312 673 312 q 784 271 738 312 q 833 174 833 227 q 792 75 833 115 q 694 34 751 34 q 602 75 647 34 q 555 174 555 118 q 563 214 555 194 q 521 208 543 208 q 429 248 473 208 q 381 347 381 292 q 389 388 381 368 l 389 388 q 347 381 369 381 q 304 391 324 381 l 304 391 q 312 347 312 369 q 278 256 312 294 l 278 256 q 312 174 312 218 q 271 75 312 115 q 174 34 231 34 l 174 34 z "},"S":{"ha":867,"x_min":34,"x_max":833,"o":"m 263 68 q 263 68 263 68 l 263 68 q 263 68 263 68 l 263 68 m 651 217 q 651 217 651 217 l 651 217 q 651 217 651 217 l 651 217 m 563 388 q 563 388 563 388 l 563 388 q 563 388 563 388 l 563 388 m 437 415 q 437 415 437 415 l 437 415 q 437 415 437 415 l 437 415 m 216 562 q 216 562 216 562 l 216 562 q 216 562 216 562 l 216 562 m 304 738 q 304 738 304 738 l 304 738 q 304 738 304 738 l 304 738 m 610 762 q 610 762 610 762 l 610 762 q 610 762 610 762 l 610 762 m 174 34 q 81 75 126 34 q 34 174 34 118 q 75 263 34 218 q 174 312 119 312 q 259 274 216 312 l 259 274 q 347 312 300 312 q 433 274 389 312 l 433 274 q 521 312 473 312 q 563 302 541 312 l 563 302 q 555 347 555 323 q 563 388 555 368 l 563 388 q 521 381 543 381 q 437 415 477 381 q 347 381 399 381 q 255 422 300 381 q 208 521 208 465 q 216 562 208 541 l 216 562 q 174 555 195 555 q 81 595 126 555 q 34 694 34 639 q 75 784 34 739 q 174 833 119 833 q 216 823 194 833 l 216 823 q 208 868 208 844 q 248 958 208 913 q 347 1006 293 1006 q 433 968 389 1006 l 433 968 q 521 1006 473 1006 q 606 968 563 1006 l 606 968 q 694 1006 647 1006 q 784 966 738 1006 q 833 868 833 921 q 792 769 833 810 q 694 728 751 728 q 610 762 651 728 l 610 762 q 521 728 572 728 q 437 762 477 728 l 437 762 q 347 728 399 728 q 304 738 324 728 l 304 738 q 312 694 312 716 q 305 651 312 671 l 305 651 q 347 659 326 659 q 433 621 389 659 l 433 621 q 521 659 473 659 q 610 618 564 659 q 659 521 659 574 q 652 477 659 498 l 652 477 q 694 486 673 486 q 784 445 738 486 q 833 347 833 400 q 792 248 833 289 q 694 208 751 208 q 651 217 671 208 q 659 174 659 195 q 618 75 659 115 q 521 34 578 34 q 437 68 477 34 l 437 68 q 347 34 399 34 q 263 68 304 34 l 263 68 q 174 34 225 34 l 174 34 z "},"T":{"ha":1040,"x_min":34,"x_max":1006,"o":"m 389 735 q 389 735 389 735 l 389 735 q 389 735 389 735 l 389 735 m 651 738 q 651 738 651 738 l 651 738 q 651 738 651 738 l 651 738 m 263 762 q 263 762 263 762 l 263 762 q 263 762 263 762 l 263 762 m 521 34 q 429 75 473 34 q 381 174 381 118 q 418 259 381 216 l 418 259 q 381 347 381 298 q 418 433 381 389 l 418 433 q 381 521 381 472 q 418 606 381 563 l 418 606 q 381 694 381 646 q 389 735 381 715 l 389 735 q 347 728 369 728 q 263 762 304 728 l 263 762 q 174 728 225 728 q 81 769 126 728 q 34 868 34 812 q 75 958 34 913 q 174 1006 119 1006 q 259 968 216 1006 l 259 968 q 347 1006 300 1006 q 433 968 389 1006 l 433 968 q 521 1006 473 1006 q 606 968 563 1006 l 606 968 q 694 1006 647 1006 q 780 968 736 1006 l 780 968 q 868 1006 821 1006 q 958 966 911 1006 q 1006 868 1006 921 q 966 769 1006 810 q 868 728 925 728 q 784 762 825 728 l 784 762 q 694 728 746 728 q 651 738 671 728 l 651 738 q 659 694 659 716 q 625 604 659 642 l 625 604 q 659 521 659 566 q 625 430 659 468 l 625 430 q 659 347 659 392 q 625 256 659 294 l 625 256 q 659 174 659 218 q 618 75 659 115 q 521 34 578 34 l 521 34 z "},"U":{"ha":867,"x_min":34,"x_max":833,"o":"m 437 68 q 437 68 437 68 l 437 68 q 437 68 437 68 l 437 68 m 216 214 q 216 214 216 214 l 216 214 q 216 214 216 214 l 216 214 m 347 34 q 255 75 300 34 q 208 174 208 118 q 216 214 208 194 l 216 214 q 174 208 195 208 q 81 248 126 208 q 34 347 34 292 q 71 433 34 389 l 71 433 q 34 521 34 472 q 71 606 34 563 l 71 606 q 34 694 34 646 q 71 780 34 736 l 71 780 q 34 868 34 819 q 75 958 34 913 q 174 1006 119 1006 q 263 966 217 1006 q 312 868 312 921 q 278 777 312 815 l 278 777 q 312 694 312 739 q 278 604 312 642 l 278 604 q 312 521 312 566 q 278 430 312 468 l 278 430 q 312 347 312 392 q 305 304 312 324 l 305 304 q 347 312 326 312 q 433 274 389 312 l 433 274 q 521 312 473 312 q 563 302 541 312 l 563 302 q 555 347 555 323 q 591 433 555 389 l 591 433 q 555 521 555 472 q 591 606 555 563 l 591 606 q 555 694 555 646 q 591 780 555 736 l 591 780 q 555 868 555 819 q 595 958 555 913 q 694 1006 640 1006 q 784 966 738 1006 q 833 868 833 921 q 799 777 833 815 l 799 777 q 833 694 833 739 q 799 604 833 642 l 799 604 q 833 521 833 566 q 799 430 833 468 l 799 430 q 833 347 833 392 q 799 256 833 294 l 799 256 q 833 174 833 218 q 792 75 833 115 q 694 34 751 34 q 610 68 651 34 l 610 68 q 521 34 572 34 q 437 68 477 34 q 347 34 399 34 l 347 34 z "},"V":{"ha":1040,"x_min":34,"x_max":1006,"o":"m 389 214 q 389 214 389 214 l 389 214 q 389 214 389 214 l 389 214 m 651 217 q 651 217 651 217 l 651 217 q 651 217 651 217 l 651 217 m 216 562 q 216 562 216 562 l 216 562 q 216 562 216 562 l 216 562 m 825 564 q 825 564 825 564 l 825 564 q 825 564 825 564 l 825 564 m 521 34 q 429 75 473 34 q 381 174 381 118 q 389 214 381 194 l 389 214 q 347 208 369 208 q 255 248 300 208 q 208 347 208 292 q 244 433 208 389 l 244 433 q 208 521 208 472 q 216 562 208 541 l 216 562 q 174 555 195 555 q 81 595 126 555 q 34 694 34 639 q 71 780 34 736 l 71 780 q 34 868 34 819 q 75 958 34 913 q 174 1006 119 1006 q 263 966 217 1006 q 312 868 312 921 q 278 777 312 815 l 278 777 q 312 694 312 739 q 305 651 312 671 l 305 651 q 347 659 326 659 q 437 618 391 659 q 486 521 486 574 q 452 430 486 468 l 452 430 q 486 347 486 392 q 479 304 486 324 l 479 304 q 521 312 499 312 q 563 302 541 312 l 563 302 q 555 347 555 323 q 591 433 555 389 l 591 433 q 555 521 555 472 q 595 610 555 566 q 694 659 640 659 q 736 650 715 659 l 736 650 q 728 694 728 670 q 765 780 728 736 l 765 780 q 728 868 728 819 q 769 958 728 913 q 868 1006 814 1006 q 958 966 911 1006 q 1006 868 1006 921 q 972 777 1006 815 l 972 777 q 1006 694 1006 739 q 966 595 1006 636 q 868 555 925 555 q 825 564 845 555 l 825 564 q 833 521 833 543 q 799 430 833 468 l 799 430 q 833 347 833 392 q 792 248 833 289 q 694 208 751 208 q 651 217 671 208 l 651 217 q 659 174 659 195 q 618 75 659 115 q 521 34 578 34 l 521 34 z "},"W":{"ha":1040,"x_min":34,"x_max":1006,"o":"m 563 214 q 563 214 563 214 l 563 214 q 563 214 563 214 l 563 214 m 477 217 q 477 217 477 217 l 477 217 q 477 217 477 217 l 477 217 m 825 391 q 825 391 825 391 l 825 391 q 825 391 825 391 l 825 391 m 347 34 q 255 75 300 34 q 208 174 208 118 q 244 259 208 216 l 244 259 q 208 347 208 298 q 216 388 208 368 l 216 388 q 174 381 195 381 q 81 422 126 381 q 34 521 34 465 q 71 606 34 563 l 71 606 q 34 694 34 646 q 71 780 34 736 l 71 780 q 34 868 34 819 q 75 958 34 913 q 174 1006 119 1006 q 263 966 217 1006 q 312 868 312 921 q 278 777 312 815 l 278 777 q 312 694 312 739 q 278 604 312 642 l 278 604 q 312 521 312 566 q 305 477 312 498 l 305 477 q 347 486 326 486 q 389 476 368 486 l 389 476 q 381 521 381 496 q 422 610 381 566 q 521 659 467 659 q 610 618 564 659 q 659 521 659 574 q 652 477 659 498 l 652 477 q 694 486 673 486 q 736 476 715 486 l 736 476 q 728 521 728 496 q 765 606 728 563 l 765 606 q 728 694 728 646 q 765 780 728 736 l 765 780 q 728 868 728 819 q 769 958 728 913 q 868 1006 814 1006 q 958 966 911 1006 q 1006 868 1006 921 q 972 777 1006 815 l 972 777 q 1006 694 1006 739 q 972 604 1006 642 l 972 604 q 1006 521 1006 566 q 966 422 1006 463 q 868 381 925 381 q 825 391 845 381 l 825 391 q 833 347 833 369 q 799 256 833 294 l 799 256 q 833 174 833 218 q 792 75 833 115 q 694 34 751 34 q 602 75 647 34 q 555 174 555 118 q 563 214 555 194 q 521 208 543 208 q 477 217 498 208 l 477 217 q 486 174 486 195 q 445 75 486 115 q 347 34 404 34 l 347 34 z "},"X":{"ha":1040,"x_min":34,"x_max":1006,"o":"m 736 214 q 736 214 736 214 l 736 214 q 736 214 736 214 l 736 214 m 304 217 q 304 217 304 217 l 304 217 q 304 217 304 217 l 304 217 m 563 388 q 563 388 563 388 l 563 388 q 563 388 563 388 l 563 388 m 477 391 q 477 391 477 391 l 477 391 q 477 391 477 391 l 477 391 m 389 562 q 389 562 389 562 l 389 562 q 389 562 389 562 l 389 562 m 651 564 q 651 564 651 564 l 651 564 q 651 564 651 564 l 651 564 m 216 735 q 216 735 216 735 l 216 735 q 216 735 216 735 l 216 735 m 174 34 q 81 75 126 34 q 34 174 34 118 q 75 263 34 218 q 174 312 119 312 q 216 302 194 312 l 216 302 q 208 347 208 323 q 248 437 208 392 q 347 486 293 486 q 389 476 368 486 l 389 476 q 381 521 381 496 q 389 562 381 541 l 389 562 q 347 555 369 555 q 255 595 300 555 q 208 694 208 639 q 216 735 208 715 l 216 735 q 174 728 195 728 q 81 769 126 728 q 34 868 34 812 q 75 958 34 913 q 174 1006 119 1006 q 263 966 217 1006 q 312 868 312 921 q 305 825 312 845 l 305 825 q 347 833 326 833 q 437 792 391 833 q 486 694 486 747 q 479 651 486 671 l 479 651 q 521 659 499 659 q 563 650 541 659 l 563 650 q 555 694 555 670 q 595 784 555 739 q 694 833 640 833 q 736 823 715 833 l 736 823 q 728 868 728 844 q 769 958 728 913 q 868 1006 814 1006 q 958 966 911 1006 q 1006 868 1006 921 q 966 769 1006 810 q 868 728 925 728 q 825 738 845 728 l 825 738 q 833 694 833 716 q 792 595 833 636 q 694 555 751 555 q 651 564 671 555 l 651 564 q 659 521 659 543 q 652 477 659 498 l 652 477 q 694 486 673 486 q 784 445 738 486 q 833 347 833 400 q 826 304 833 324 l 826 304 q 868 312 846 312 q 958 271 911 312 q 1006 174 1006 227 q 966 75 1006 115 q 868 34 925 34 q 776 75 821 34 q 728 174 728 118 q 736 214 728 194 l 736 214 q 694 208 716 208 q 602 248 647 208 q 555 347 555 292 q 563 388 555 368 l 563 388 q 521 381 543 381 q 477 391 498 381 l 477 391 q 486 347 486 369 q 445 248 486 289 q 347 208 404 208 q 304 217 324 208 l 304 217 q 312 174 312 195 q 271 75 312 115 q 174 34 231 34 l 174 34 z "},"Y":{"ha":1040,"x_min":34,"x_max":1006,"o":"m 389 562 q 389 562 389 562 l 389 562 q 389 562 389 562 l 389 562 m 825 738 q 825 738 825 738 l 825 738 q 825 738 825 738 l 825 738 m 521 34 q 429 75 473 34 q 381 174 381 118 q 418 259 381 216 l 418 259 q 381 347 381 298 q 418 433 381 389 l 418 433 q 381 521 381 472 q 389 562 381 541 q 347 555 369 555 q 255 595 300 555 q 208 694 208 639 q 216 735 208 715 l 216 735 q 174 728 195 728 q 81 769 126 728 q 34 868 34 812 q 75 958 34 913 q 174 1006 119 1006 q 263 966 217 1006 q 312 868 312 921 q 305 825 312 845 l 305 825 q 347 833 326 833 q 437 792 391 833 q 486 694 486 747 q 479 651 486 671 l 479 651 q 521 659 499 659 q 563 650 541 659 l 563 650 q 555 694 555 670 q 595 784 555 739 q 694 833 640 833 q 736 823 715 833 l 736 823 q 728 868 728 844 q 769 958 728 913 q 868 1006 814 1006 q 958 966 911 1006 q 1006 868 1006 921 q 966 769 1006 810 q 868 728 925 728 q 825 738 845 728 l 825 738 q 833 694 833 716 q 792 595 833 636 q 694 555 751 555 q 651 564 671 555 l 651 564 q 659 521 659 543 q 625 430 659 468 l 625 430 q 659 347 659 392 q 625 256 659 294 l 625 256 q 659 174 659 218 q 618 75 659 115 q 521 34 578 34 l 521 34 z "},"Z":{"ha":1040,"x_min":34,"x_max":1006,"o":"m 263 68 q 263 68 263 68 l 263 68 q 263 68 263 68 l 263 68 m 610 68 q 610 68 610 68 l 610 68 q 610 68 610 68 l 610 68 m 477 391 q 477 391 477 391 l 477 391 q 477 391 477 391 l 477 391 m 651 564 q 651 564 651 564 l 651 564 q 651 564 651 564 l 651 564 m 263 762 q 263 762 263 762 l 263 762 q 263 762 263 762 l 263 762 m 174 34 q 81 75 126 34 q 34 174 34 118 q 75 263 34 218 q 174 312 119 312 q 216 302 194 312 l 216 302 q 208 347 208 323 q 248 437 208 392 q 347 486 293 486 q 389 476 368 486 l 389 476 q 381 521 381 496 q 422 610 381 566 q 521 659 467 659 q 563 650 541 659 l 563 650 q 555 694 555 670 q 563 735 555 715 l 563 735 q 521 728 543 728 q 437 762 477 728 l 437 762 q 347 728 399 728 q 263 762 304 728 l 263 762 q 174 728 225 728 q 81 769 126 728 q 34 868 34 812 q 75 958 34 913 q 174 1006 119 1006 q 259 968 216 1006 l 259 968 q 347 1006 300 1006 q 433 968 389 1006 l 433 968 q 521 1006 473 1006 q 606 968 563 1006 l 606 968 q 694 1006 647 1006 q 780 968 736 1006 l 780 968 q 868 1006 821 1006 q 958 966 911 1006 q 1006 868 1006 921 q 966 769 1006 810 q 868 728 925 728 q 825 738 845 728 l 825 738 q 833 694 833 716 q 792 595 833 636 q 694 555 751 555 q 651 564 671 555 l 651 564 q 659 521 659 543 q 618 422 659 463 q 521 381 578 381 q 477 391 498 381 l 477 391 q 486 347 486 369 q 479 304 486 324 l 479 304 q 521 312 499 312 q 606 274 563 312 l 606 274 q 694 312 647 312 q 780 274 736 312 l 780 274 q 868 312 821 312 q 958 271 911 312 q 1006 174 1006 227 q 966 75 1006 115 q 868 34 925 34 q 784 68 825 34 l 784 68 q 694 34 746 34 q 610 68 651 34 l 610 68 q 521 34 572 34 q 437 68 477 34 l 437 68 q 347 34 399 34 q 263 68 304 34 q 174 34 225 34 l 174 34 z "},"[":{"ha":521,"x_min":34,"x_max":486,"o":"m 263 68 q 263 68 263 68 l 263 68 q 263 68 263 68 l 263 68 m 304 738 q 304 738 304 738 l 304 738 q 304 738 304 738 l 304 738 m 174 34 q 81 75 126 34 q 34 174 34 118 q 71 259 34 216 l 71 259 q 34 347 34 298 q 71 433 34 389 l 71 433 q 34 521 34 472 q 71 606 34 563 l 71 606 q 34 694 34 646 q 71 780 34 736 l 71 780 q 34 868 34 819 q 75 958 34 913 q 174 1006 119 1006 q 259 968 216 1006 l 259 968 q 347 1006 300 1006 q 437 966 391 1006 q 486 868 486 921 q 445 769 486 810 q 347 728 404 728 q 304 738 324 728 l 304 738 q 312 694 312 716 q 278 604 312 642 l 278 604 q 312 521 312 566 q 278 430 312 468 l 278 430 q 312 347 312 392 q 305 304 312 324 l 305 304 q 347 312 326 312 q 437 271 391 312 q 486 174 486 227 q 445 75 486 115 q 347 34 404 34 q 263 68 304 34 l 263 68 q 174 34 225 34 l 174 34 z "},"\\":{"ha":1040,"x_min":34,"x_max":1006,"o":"m 736 214 q 736 214 736 214 l 736 214 q 736 214 736 214 l 736 214 m 563 388 q 563 388 563 388 l 563 388 q 563 388 563 388 l 563 388 m 389 562 q 389 562 389 562 l 389 562 q 389 562 389 562 l 389 562 m 868 34 q 776 75 821 34 q 728 174 728 118 q 736 214 728 194 l 736 214 q 694 208 716 208 q 602 248 647 208 q 555 347 555 292 q 563 388 555 368 l 563 388 q 521 381 543 381 q 429 422 473 381 q 381 521 381 465 q 389 562 381 541 q 347 555 369 555 q 255 595 300 555 q 208 694 208 639 q 216 735 208 715 l 216 735 q 174 728 195 728 q 81 769 126 728 q 34 868 34 812 q 75 958 34 913 q 174 1006 119 1006 q 263 966 217 1006 q 312 868 312 921 q 305 825 312 845 l 305 825 q 347 833 326 833 q 437 792 391 833 q 486 694 486 747 q 479 651 486 671 l 479 651 q 521 659 499 659 q 610 618 564 659 q 659 521 659 574 q 652 477 659 498 l 652 477 q 694 486 673 486 q 784 445 738 486 q 833 347 833 400 q 826 304 833 324 l 826 304 q 868 312 846 312 q 958 271 911 312 q 1006 174 1006 227 q 966 75 1006 115 q 868 34 925 34 l 868 34 z "},"]":{"ha":521,"x_min":34,"x_max":486,"o":"m 263 68 q 263 68 263 68 l 263 68 q 263 68 263 68 l 263 68 m 216 735 q 216 735 216 735 l 216 735 q 216 735 216 735 l 216 735 m 174 34 q 81 75 126 34 q 34 174 34 118 q 75 263 34 218 q 174 312 119 312 q 216 302 194 312 l 216 302 q 208 347 208 323 q 244 433 208 389 l 244 433 q 208 521 208 472 q 244 606 208 563 l 244 606 q 208 694 208 646 q 216 735 208 715 l 216 735 q 174 728 195 728 q 81 769 126 728 q 34 868 34 812 q 75 958 34 913 q 174 1006 119 1006 q 259 968 216 1006 l 259 968 q 347 1006 300 1006 q 437 966 391 1006 q 486 868 486 921 q 452 777 486 815 l 452 777 q 486 694 486 739 q 452 604 486 642 l 452 604 q 486 521 486 566 q 452 430 486 468 l 452 430 q 486 347 486 392 q 452 256 486 294 l 452 256 q 486 174 486 218 q 445 75 486 115 q 347 34 404 34 q 263 68 304 34 l 263 68 q 174 34 225 34 l 174 34 z "},"^":{"ha":694,"x_min":34,"x_max":659,"o":"m 174 555 q 81 595 126 555 q 34 694 34 639 q 75 784 34 739 q 174 833 119 833 q 216 823 194 833 l 216 823 q 208 868 208 844 q 248 958 208 913 q 347 1006 293 1006 q 437 966 391 1006 q 486 868 486 921 q 479 825 486 845 l 479 825 q 521 833 499 833 q 610 792 564 833 q 659 694 659 747 q 618 595 659 636 q 521 555 578 555 q 429 595 473 555 q 381 694 381 639 q 389 735 381 715 l 389 735 q 347 728 369 728 q 304 738 324 728 l 304 738 q 312 694 312 716 q 271 595 312 636 q 174 555 231 555 l 174 555 z "},"_":{"ha":867,"x_min":34,"x_max":833,"o":"m 263 68 q 263 68 263 68 l 263 68 q 263 68 263 68 l 263 68 m 610 68 q 610 68 610 68 l 610 68 q 610 68 610 68 l 610 68 m 174 34 q 81 75 126 34 q 34 174 34 118 q 75 263 34 218 q 174 312 119 312 q 259 274 216 312 l 259 274 q 347 312 300 312 q 433 274 389 312 l 433 274 q 521 312 473 312 q 606 274 563 312 l 606 274 q 694 312 647 312 q 784 271 738 312 q 833 174 833 227 q 792 75 833 115 q 694 34 751 34 q 610 68 651 34 l 610 68 q 521 34 572 34 q 437 68 477 34 l 437 68 q 347 34 399 34 q 263 68 304 34 l 263 68 q 174 34 225 34 l 174 34 z "},"`":{"ha":347,"x_min":34,"x_max":312,"o":"m 174 728 q 81 769 126 728 q 34 868 34 812 q 75 958 34 913 q 174 1006 119 1006 q 263 966 217 1006 q 312 868 312 921 q 271 769 312 810 q 174 728 231 728 l 174 728 z "},"a":{"ha":1040,"x_min":34,"x_max":1006,"o":"m 736 214 q 736 214 736 214 l 736 214 q 736 214 736 214 l 736 214 m 304 217 q 304 217 304 217 l 304 217 q 304 217 304 217 l 304 217 m 610 241 q 610 241 610 241 l 610 241 q 610 241 610 241 l 610 241 m 736 562 q 736 562 736 562 l 736 562 q 736 562 736 562 l 736 562 m 563 735 q 563 735 563 735 l 563 735 q 563 735 563 735 l 563 735 m 433 448 q 521 486 473 486 q 606 448 563 486 l 606 448 q 694 486 647 486 q 736 476 715 486 l 736 476 q 728 521 728 496 q 736 562 728 541 l 736 562 q 694 555 716 555 q 602 595 647 555 q 555 694 555 639 q 563 735 555 715 l 563 735 q 521 728 543 728 q 477 738 498 728 l 477 738 q 486 694 486 716 q 445 595 486 636 q 347 555 404 555 q 304 564 324 555 l 304 564 q 312 521 312 543 q 305 477 312 498 l 305 477 q 347 486 326 486 q 433 448 389 486 l 433 448 m 477 738 q 477 738 477 738 l 477 738 q 477 738 477 738 l 477 738 m 174 34 q 81 75 126 34 q 34 174 34 118 q 71 259 34 216 l 71 259 q 34 347 34 298 q 71 433 34 389 l 71 433 q 34 521 34 472 q 75 610 34 566 q 174 659 119 659 q 216 650 194 659 l 216 650 q 208 694 208 670 q 248 784 208 739 q 347 833 293 833 q 389 823 368 833 l 389 823 q 381 868 381 844 q 422 958 381 913 q 521 1006 467 1006 q 610 966 564 1006 q 659 868 659 921 q 652 825 659 845 l 652 825 q 694 833 673 833 q 784 792 738 833 q 833 694 833 747 q 826 651 833 671 l 826 651 q 868 659 846 659 q 958 618 911 659 q 1006 521 1006 574 q 972 430 1006 468 l 972 430 q 1006 347 1006 392 q 972 256 1006 294 l 972 256 q 1006 174 1006 218 q 966 75 1006 115 q 868 34 925 34 q 776 75 821 34 q 728 174 728 118 q 736 214 728 194 l 736 214 q 694 208 716 208 q 610 241 651 208 l 610 241 q 521 208 572 208 q 437 241 477 208 l 437 241 q 347 208 399 208 q 304 217 324 208 l 304 217 q 312 174 312 195 q 271 75 312 115 q 174 34 231 34 l 174 34 z "},"b":{"ha":867,"x_min":34,"x_max":833,"o":"m 263 68 q 263 68 263 68 l 263 68 q 263 68 263 68 l 263 68 m 651 217 q 651 217 651 217 l 651 217 q 651 217 651 217 l 651 217 m 563 388 q 563 388 563 388 l 563 388 q 563 388 563 388 l 563 388 m 304 391 q 304 391 304 391 l 304 391 q 304 391 304 391 l 304 391 m 433 274 q 521 312 473 312 q 563 302 541 312 l 563 302 q 555 347 555 323 q 563 388 555 368 l 563 388 q 521 381 543 381 q 437 415 477 381 q 347 381 399 381 q 304 391 324 381 l 304 391 q 312 347 312 369 q 305 304 312 324 l 305 304 q 347 312 326 312 q 433 274 389 312 l 433 274 m 437 415 q 437 415 437 415 l 437 415 q 437 415 437 415 l 437 415 m 563 735 q 563 735 563 735 l 563 735 q 563 735 563 735 l 563 735 m 304 738 q 304 738 304 738 l 304 738 q 304 738 304 738 l 304 738 m 433 621 q 521 659 473 659 q 563 650 541 659 l 563 650 q 555 694 555 670 q 563 735 555 715 l 563 735 q 521 728 543 728 q 437 762 477 728 l 437 762 q 347 728 399 728 q 304 738 324 728 l 304 738 q 312 694 312 716 q 305 651 312 671 l 305 651 q 347 659 326 659 q 433 621 389 659 l 433 621 m 437 762 q 437 762 437 762 l 437 762 q 437 762 437 762 l 437 762 m 174 34 q 81 75 126 34 q 34 174 34 118 q 71 259 34 216 l 71 259 q 34 347 34 298 q 71 433 34 389 l 71 433 q 34 521 34 472 q 71 606 34 563 l 71 606 q 34 694 34 646 q 71 780 34 736 l 71 780 q 34 868 34 819 q 75 958 34 913 q 174 1006 119 1006 q 259 968 216 1006 l 259 968 q 347 1006 300 1006 q 433 968 389 1006 l 433 968 q 521 1006 473 1006 q 610 966 564 1006 q 659 868 659 921 q 652 825 659 845 l 652 825 q 694 833 673 833 q 784 792 738 833 q 833 694 833 747 q 792 595 833 636 q 694 555 751 555 q 651 564 671 555 l 651 564 q 659 521 659 543 q 652 477 659 498 l 652 477 q 694 486 673 486 q 784 445 738 486 q 833 347 833 400 q 792 248 833 289 q 694 208 751 208 q 651 217 671 208 l 651 217 q 659 174 659 195 q 618 75 659 115 q 521 34 578 34 q 437 68 477 34 l 437 68 q 347 34 399 34 q 263 68 304 34 l 263 68 q 174 34 225 34 l 174 34 z "},"c":{"ha":867,"x_min":34,"x_max":833,"o":"m 437 68 q 437 68 437 68 l 437 68 q 437 68 437 68 l 437 68 m 216 214 q 216 214 216 214 l 216 214 q 216 214 216 214 l 216 214 m 304 738 q 304 738 304 738 l 304 738 q 304 738 304 738 l 304 738 m 437 762 q 437 762 437 762 l 437 762 q 437 762 437 762 l 437 762 m 347 34 q 255 75 300 34 q 208 174 208 118 q 216 214 208 194 l 216 214 q 174 208 195 208 q 81 248 126 208 q 34 347 34 292 q 71 433 34 389 l 71 433 q 34 521 34 472 q 71 606 34 563 l 71 606 q 34 694 34 646 q 75 784 34 739 q 174 833 119 833 q 216 823 194 833 l 216 823 q 208 868 208 844 q 248 958 208 913 q 347 1006 293 1006 q 433 968 389 1006 l 433 968 q 521 1006 473 1006 q 606 968 563 1006 l 606 968 q 694 1006 647 1006 q 784 966 738 1006 q 833 868 833 921 q 792 769 833 810 q 694 728 751 728 q 610 762 651 728 l 610 762 q 521 728 572 728 q 437 762 477 728 l 437 762 q 347 728 399 728 q 304 738 324 728 l 304 738 q 312 694 312 716 q 278 604 312 642 l 278 604 q 312 521 312 566 q 278 430 312 468 l 278 430 q 312 347 312 392 q 305 304 312 324 l 305 304 q 347 312 326 312 q 433 274 389 312 l 433 274 q 521 312 473 312 q 606 274 563 312 l 606 274 q 694 312 647 312 q 784 271 738 312 q 833 174 833 227 q 792 75 833 115 q 694 34 751 34 q 610 68 651 34 l 610 68 q 521 34 572 34 q 437 68 477 34 q 347 34 399 34 l 347 34 z "},"d":{"ha":867,"x_min":34,"x_max":833,"o":"m 263 68 q 263 68 263 68 l 263 68 q 263 68 263 68 l 263 68 m 651 217 q 651 217 651 217 l 651 217 q 651 217 651 217 l 651 217 m 563 735 q 563 735 563 735 l 563 735 q 563 735 563 735 l 563 735 m 433 274 q 521 312 473 312 q 563 302 541 312 l 563 302 q 555 347 555 323 q 591 433 555 389 l 591 433 q 555 521 555 472 q 591 606 555 563 l 591 606 q 555 694 555 646 q 563 735 555 715 l 563 735 q 521 728 543 728 q 437 762 477 728 q 347 728 399 728 q 304 738 324 728 l 304 738 q 312 694 312 716 q 278 604 312 642 l 278 604 q 312 521 312 566 q 278 430 312 468 l 278 430 q 312 347 312 392 q 305 304 312 324 l 305 304 q 347 312 326 312 q 433 274 389 312 l 433 274 m 437 762 q 437 762 437 762 l 437 762 q 437 762 437 762 l 437 762 m 174 34 q 81 75 126 34 q 34 174 34 118 q 71 259 34 216 l 71 259 q 34 347 34 298 q 71 433 34 389 l 71 433 q 34 521 34 472 q 71 606 34 563 l 71 606 q 34 694 34 646 q 71 780 34 736 l 71 780 q 34 868 34 819 q 75 958 34 913 q 174 1006 119 1006 q 259 968 216 1006 l 259 968 q 347 1006 300 1006 q 433 968 389 1006 l 433 968 q 521 1006 473 1006 q 610 966 564 1006 q 659 868 659 921 q 652 825 659 845 l 652 825 q 694 833 673 833 q 784 792 738 833 q 833 694 833 747 q 799 604 833 642 l 799 604 q 833 521 833 566 q 799 430 833 468 l 799 430 q 833 347 833 392 q 792 248 833 289 q 694 208 751 208 q 651 217 671 208 l 651 217 q 659 174 659 195 q 618 75 659 115 q 521 34 578 34 q 437 68 477 34 l 437 68 q 347 34 399 34 q 263 68 304 34 l 263 68 q 174 34 225 34 l 174 34 z "},"e":{"ha":867,"x_min":34,"x_max":833,"o":"m 263 68 q 263 68 263 68 l 263 68 q 263 68 263 68 l 263 68 m 610 68 q 610 68 610 68 l 610 68 q 610 68 610 68 l 610 68 m 304 391 q 304 391 304 391 l 304 391 q 304 391 304 391 l 304 391 m 437 415 q 437 415 437 415 l 437 415 q 437 415 437 415 l 437 415 m 304 738 q 304 738 304 738 l 304 738 q 304 738 304 738 l 304 738 m 437 762 q 437 762 437 762 l 437 762 q 437 762 437 762 l 437 762 m 174 34 q 81 75 126 34 q 34 174 34 118 q 71 259 34 216 l 71 259 q 34 347 34 298 q 71 433 34 389 l 71 433 q 34 521 34 472 q 71 606 34 563 l 71 606 q 34 694 34 646 q 71 780 34 736 l 71 780 q 34 868 34 819 q 75 958 34 913 q 174 1006 119 1006 q 259 968 216 1006 l 259 968 q 347 1006 300 1006 q 433 968 389 1006 l 433 968 q 521 1006 473 1006 q 606 968 563 1006 l 606 968 q 694 1006 647 1006 q 784 966 738 1006 q 833 868 833 921 q 792 769 833 810 q 694 728 751 728 q 610 762 651 728 l 610 762 q 521 728 572 728 q 437 762 477 728 l 437 762 q 347 728 399 728 q 304 738 324 728 l 304 738 q 312 694 312 716 q 305 651 312 671 l 305 651 q 347 659 326 659 q 433 621 389 659 l 433 621 q 521 659 473 659 q 610 618 564 659 q 659 521 659 574 q 618 422 659 463 q 521 381 578 381 q 437 415 477 381 q 347 381 399 381 q 304 391 324 381 l 304 391 q 312 347 312 369 q 305 304 312 324 l 305 304 q 347 312 326 312 q 433 274 389 312 l 433 274 q 521 312 473 312 q 606 274 563 312 l 606 274 q 694 312 647 312 q 784 271 738 312 q 833 174 833 227 q 792 75 833 115 q 694 34 751 34 q 610 68 651 34 l 610 68 q 521 34 572 34 q 437 68 477 34 l 437 68 q 347 34 399 34 q 263 68 304 34 q 174 34 225 34 l 174 34 z "},"f":{"ha":867,"x_min":34,"x_max":833,"o":"m 304 391 q 304 391 304 391 l 304 391 q 304 391 304 391 l 304 391 m 437 415 q 437 415 437 415 l 437 415 q 437 415 437 415 l 437 415 m 304 738 q 304 738 304 738 l 304 738 q 304 738 304 738 l 304 738 m 610 762 q 610 762 610 762 l 610 762 q 610 762 610 762 l 610 762 m 174 34 q 81 75 126 34 q 34 174 34 118 q 71 259 34 216 l 71 259 q 34 347 34 298 q 71 433 34 389 l 71 433 q 34 521 34 472 q 71 606 34 563 l 71 606 q 34 694 34 646 q 71 780 34 736 l 71 780 q 34 868 34 819 q 75 958 34 913 q 174 1006 119 1006 q 259 968 216 1006 l 259 968 q 347 1006 300 1006 q 433 968 389 1006 l 433 968 q 521 1006 473 1006 q 606 968 563 1006 l 606 968 q 694 1006 647 1006 q 784 966 738 1006 q 833 868 833 921 q 792 769 833 810 q 694 728 751 728 q 610 762 651 728 l 610 762 q 521 728 572 728 q 437 762 477 728 l 437 762 q 347 728 399 728 q 304 738 324 728 q 312 694 312 716 q 305 651 312 671 l 305 651 q 347 659 326 659 q 433 621 389 659 l 433 621 q 521 659 473 659 q 610 618 564 659 q 659 521 659 574 q 618 422 659 463 q 521 381 578 381 q 437 415 477 381 q 347 381 399 381 q 304 391 324 381 q 312 347 312 369 q 278 256 312 294 l 278 256 q 312 174 312 218 q 271 75 312 115 q 174 34 231 34 l 174 34 z "},"g":{"ha":867,"x_min":34,"x_max":833,"o":"m 437 68 q 437 68 437 68 l 437 68 q 437 68 437 68 l 437 68 m 216 214 q 216 214 216 214 l 216 214 q 216 214 216 214 l 216 214 m 563 388 q 563 388 563 388 l 563 388 q 563 388 563 388 l 563 388 m 304 738 q 304 738 304 738 l 304 738 q 304 738 304 738 l 304 738 m 437 762 q 437 762 437 762 l 437 762 q 437 762 437 762 l 437 762 m 610 762 q 610 762 610 762 l 610 762 q 610 762 610 762 l 610 762 m 347 34 q 255 75 300 34 q 208 174 208 118 q 216 214 208 194 l 216 214 q 174 208 195 208 q 81 248 126 208 q 34 347 34 292 q 71 433 34 389 l 71 433 q 34 521 34 472 q 71 606 34 563 l 71 606 q 34 694 34 646 q 75 784 34 739 q 174 833 119 833 q 216 823 194 833 l 216 823 q 208 868 208 844 q 248 958 208 913 q 347 1006 293 1006 q 433 968 389 1006 l 433 968 q 521 1006 473 1006 q 606 968 563 1006 l 606 968 q 694 1006 647 1006 q 784 966 738 1006 q 833 868 833 921 q 792 769 833 810 q 694 728 751 728 q 610 762 651 728 q 521 728 572 728 q 437 762 477 728 l 437 762 q 347 728 399 728 q 304 738 324 728 l 304 738 q 312 694 312 716 q 278 604 312 642 l 278 604 q 312 521 312 566 q 278 430 312 468 l 278 430 q 312 347 312 392 q 305 304 312 324 l 305 304 q 347 312 326 312 q 433 274 389 312 l 433 274 q 521 312 473 312 q 563 302 541 312 l 563 302 q 555 347 555 323 q 563 388 555 368 l 563 388 q 521 381 543 381 q 429 422 473 381 q 381 521 381 465 q 422 610 381 566 q 521 659 467 659 q 606 621 563 659 l 606 621 q 694 659 647 659 q 784 618 738 659 q 833 521 833 574 q 799 430 833 468 l 799 430 q 833 347 833 392 q 799 256 833 294 l 799 256 q 833 174 833 218 q 792 75 833 115 q 694 34 751 34 q 610 68 651 34 l 610 68 q 521 34 572 34 q 437 68 477 34 q 347 34 399 34 l 347 34 z "},"h":{"ha":867,"x_min":34,"x_max":833,"o":"m 563 388 q 563 388 563 388 l 563 388 q 563 388 563 388 l 563 388 m 304 391 q 304 391 304 391 l 304 391 q 304 391 304 391 l 304 391 m 174 34 q 81 75 126 34 q 34 174 34 118 q 71 259 34 216 l 71 259 q 34 347 34 298 q 71 433 34 389 l 71 433 q 34 521 34 472 q 71 606 34 563 l 71 606 q 34 694 34 646 q 71 780 34 736 l 71 780 q 34 868 34 819 q 75 958 34 913 q 174 1006 119 1006 q 263 966 217 1006 q 312 868 312 921 q 278 777 312 815 l 278 777 q 312 694 312 739 q 305 651 312 671 l 305 651 q 347 659 326 659 q 433 621 389 659 l 433 621 q 521 659 473 659 q 563 650 541 659 l 563 650 q 555 694 555 670 q 591 780 555 736 l 591 780 q 555 868 555 819 q 595 958 555 913 q 694 1006 640 1006 q 784 966 738 1006 q 833 868 833 921 q 799 777 833 815 l 799 777 q 833 694 833 739 q 799 604 833 642 l 799 604 q 833 521 833 566 q 799 430 833 468 l 799 430 q 833 347 833 392 q 799 256 833 294 l 799 256 q 833 174 833 218 q 792 75 833 115 q 694 34 751 34 q 602 75 647 34 q 555 174 555 118 q 591 259 555 216 l 591 259 q 555 347 555 298 q 563 388 555 368 l 563 388 q 521 381 543 381 q 437 415 477 381 l 437 415 q 347 381 399 381 q 304 391 324 381 l 304 391 q 312 347 312 369 q 278 256 312 294 l 278 256 q 312 174 312 218 q 271 75 312 115 q 174 34 231 34 l 174 34 z "},"i":{"ha":694,"x_min":34,"x_max":659,"o":"m 263 68 q 263 68 263 68 l 263 68 q 263 68 263 68 l 263 68 m 216 735 q 216 735 216 735 l 216 735 q 216 735 216 735 l 216 735 m 174 34 q 81 75 126 34 q 34 174 34 118 q 75 263 34 218 q 174 312 119 312 q 216 302 194 312 l 216 302 q 208 347 208 323 q 244 433 208 389 l 244 433 q 208 521 208 472 q 244 606 208 563 l 244 606 q 208 694 208 646 q 216 735 208 715 l 216 735 q 174 728 195 728 q 81 769 126 728 q 34 868 34 812 q 75 958 34 913 q 174 1006 119 1006 q 259 968 216 1006 l 259 968 q 347 1006 300 1006 q 433 968 389 1006 l 433 968 q 521 1006 473 1006 q 610 966 564 1006 q 659 868 659 921 q 618 769 659 810 q 521 728 578 728 q 477 738 498 728 l 477 738 q 486 694 486 716 q 452 604 486 642 l 452 604 q 486 521 486 566 q 452 430 486 468 l 452 430 q 486 347 486 392 q 479 304 486 324 l 479 304 q 521 312 499 312 q 610 271 564 312 q 659 174 659 227 q 618 75 659 115 q 521 34 578 34 q 437 68 477 34 l 437 68 q 347 34 399 34 q 263 68 304 34 l 263 68 q 174 34 225 34 l 174 34 z "},"j":{"ha":867,"x_min":34,"x_max":833,"o":"m 216 214 q 216 214 216 214 l 216 214 q 216 214 216 214 l 216 214 m 477 217 q 477 217 477 217 l 477 217 q 477 217 477 217 l 477 217 m 389 735 q 389 735 389 735 l 389 735 q 389 735 389 735 l 389 735 m 651 738 q 651 738 651 738 l 651 738 q 651 738 651 738 l 651 738 m 347 34 q 255 75 300 34 q 208 174 208 118 q 216 214 208 194 l 216 214 q 174 208 195 208 q 81 248 126 208 q 34 347 34 292 q 75 437 34 392 q 174 486 119 486 q 263 445 217 486 q 312 347 312 400 q 305 304 312 324 l 305 304 q 347 312 326 312 q 389 302 368 312 l 389 302 q 381 347 381 323 q 418 433 381 389 l 418 433 q 381 521 381 472 q 418 606 381 563 l 418 606 q 381 694 381 646 q 389 735 381 715 l 389 735 q 347 728 369 728 q 255 769 300 728 q 208 868 208 812 q 248 958 208 913 q 347 1006 293 1006 q 433 968 389 1006 l 433 968 q 521 1006 473 1006 q 606 968 563 1006 l 606 968 q 694 1006 647 1006 q 784 966 738 1006 q 833 868 833 921 q 792 769 833 810 q 694 728 751 728 q 651 738 671 728 l 651 738 q 659 694 659 716 q 625 604 659 642 l 625 604 q 659 521 659 566 q 625 430 659 468 l 625 430 q 659 347 659 392 q 618 248 659 289 q 521 208 578 208 q 477 217 498 208 l 477 217 q 486 174 486 195 q 445 75 486 115 q 347 34 404 34 l 347 34 z "},"k":{"ha":867,"x_min":34,"x_max":833,"o":"m 563 214 q 563 214 563 214 l 563 214 q 563 214 563 214 l 563 214 m 389 388 q 389 388 389 388 l 389 388 q 389 388 389 388 l 389 388 m 304 391 q 304 391 304 391 l 304 391 q 304 391 304 391 l 304 391 m 477 564 q 477 564 477 564 l 477 564 q 477 564 477 564 l 477 564 m 174 34 q 81 75 126 34 q 34 174 34 118 q 71 259 34 216 l 71 259 q 34 347 34 298 q 71 433 34 389 l 71 433 q 34 521 34 472 q 71 606 34 563 l 71 606 q 34 694 34 646 q 71 780 34 736 l 71 780 q 34 868 34 819 q 75 958 34 913 q 174 1006 119 1006 q 263 966 217 1006 q 312 868 312 921 q 278 777 312 815 l 278 777 q 312 694 312 739 q 305 651 312 671 l 305 651 q 347 659 326 659 q 389 650 368 659 l 389 650 q 381 694 381 670 q 422 784 381 739 q 521 833 467 833 q 563 823 541 833 l 563 823 q 555 868 555 844 q 595 958 555 913 q 694 1006 640 1006 q 784 966 738 1006 q 833 868 833 921 q 792 769 833 810 q 694 728 751 728 q 651 738 671 728 l 651 738 q 659 694 659 716 q 618 595 659 636 q 521 555 578 555 q 477 564 498 555 l 477 564 q 486 521 486 543 q 479 477 486 498 l 479 477 q 521 486 499 486 q 610 445 564 486 q 659 347 659 400 q 652 304 659 324 l 652 304 q 694 312 673 312 q 784 271 738 312 q 833 174 833 227 q 792 75 833 115 q 694 34 751 34 q 602 75 647 34 q 555 174 555 118 q 563 214 555 194 q 521 208 543 208 q 429 248 473 208 q 381 347 381 292 q 389 388 381 368 l 389 388 q 347 381 369 381 q 304 391 324 381 l 304 391 q 312 347 312 369 q 278 256 312 294 l 278 256 q 312 174 312 218 q 271 75 312 115 q 174 34 231 34 l 174 34 z "},"l":{"ha":867,"x_min":34,"x_max":833,"o":"m 263 68 q 263 68 263 68 l 263 68 q 263 68 263 68 l 263 68 m 610 68 q 610 68 610 68 l 610 68 q 610 68 610 68 l 610 68 m 174 34 q 81 75 126 34 q 34 174 34 118 q 71 259 34 216 l 71 259 q 34 347 34 298 q 71 433 34 389 l 71 433 q 34 521 34 472 q 71 606 34 563 l 71 606 q 34 694 34 646 q 71 780 34 736 l 71 780 q 34 868 34 819 q 75 958 34 913 q 174 1006 119 1006 q 263 966 217 1006 q 312 868 312 921 q 278 777 312 815 l 278 777 q 312 694 312 739 q 278 604 312 642 l 278 604 q 312 521 312 566 q 278 430 312 468 l 278 430 q 312 347 312 392 q 305 304 312 324 l 305 304 q 347 312 326 312 q 433 274 389 312 l 433 274 q 521 312 473 312 q 606 274 563 312 l 606 274 q 694 312 647 312 q 784 271 738 312 q 833 174 833 227 q 792 75 833 115 q 694 34 751 34 q 610 68 651 34 l 610 68 q 521 34 572 34 q 437 68 477 34 l 437 68 q 347 34 399 34 q 263 68 304 34 q 174 34 225 34 l 174 34 z "},"m":{"ha":1040,"x_min":34,"x_max":1006,"o":"m 174 34 q 81 75 126 34 q 34 174 34 118 q 71 259 34 216 l 71 259 q 34 347 34 298 q 71 433 34 389 l 71 433 q 34 521 34 472 q 71 606 34 563 l 71 606 q 34 694 34 646 q 71 780 34 736 l 71 780 q 34 868 34 819 q 75 958 34 913 q 174 1006 119 1006 q 263 966 217 1006 q 312 868 312 921 q 305 825 312 845 l 305 825 q 347 833 326 833 q 437 792 391 833 q 486 694 486 747 q 479 651 486 671 l 479 651 q 521 659 499 659 q 563 650 541 659 l 563 650 q 555 694 555 670 q 595 784 555 739 q 694 833 640 833 q 736 823 715 833 l 736 823 q 728 868 728 844 q 769 958 728 913 q 868 1006 814 1006 q 958 966 911 1006 q 1006 868 1006 921 q 972 777 1006 815 l 972 777 q 1006 694 1006 739 q 972 604 1006 642 l 972 604 q 1006 521 1006 566 q 972 430 1006 468 l 972 430 q 1006 347 1006 392 q 972 256 1006 294 l 972 256 q 1006 174 1006 218 q 966 75 1006 115 q 868 34 925 34 q 776 75 821 34 q 728 174 728 118 q 765 259 728 216 l 765 259 q 728 347 728 298 q 765 433 728 389 l 765 433 q 728 521 728 472 q 736 562 728 541 q 694 555 716 555 q 651 564 671 555 l 651 564 q 659 521 659 543 q 618 422 659 463 q 521 381 578 381 q 429 422 473 381 q 381 521 381 465 q 389 562 381 541 q 347 555 369 555 q 304 564 324 555 l 304 564 q 312 521 312 543 q 278 430 312 468 l 278 430 q 312 347 312 392 q 278 256 312 294 l 278 256 q 312 174 312 218 q 271 75 312 115 q 174 34 231 34 l 174 34 z "},"n":{"ha":1040,"x_min":34,"x_max":1006,"o":"m 736 214 q 736 214 736 214 l 736 214 q 736 214 736 214 l 736 214 m 563 388 q 563 388 563 388 l 563 388 q 563 388 563 388 l 563 388 m 174 34 q 81 75 126 34 q 34 174 34 118 q 71 259 34 216 l 71 259 q 34 347 34 298 q 71 433 34 389 l 71 433 q 34 521 34 472 q 71 606 34 563 l 71 606 q 34 694 34 646 q 71 780 34 736 l 71 780 q 34 868 34 819 q 75 958 34 913 q 174 1006 119 1006 q 263 966 217 1006 q 312 868 312 921 q 305 825 312 845 l 305 825 q 347 833 326 833 q 437 792 391 833 q 486 694 486 747 q 479 651 486 671 l 479 651 q 521 659 499 659 q 610 618 564 659 q 659 521 659 574 q 652 477 659 498 l 652 477 q 694 486 673 486 q 736 476 715 486 l 736 476 q 728 521 728 496 q 765 606 728 563 l 765 606 q 728 694 728 646 q 765 780 728 736 l 765 780 q 728 868 728 819 q 769 958 728 913 q 868 1006 814 1006 q 958 966 911 1006 q 1006 868 1006 921 q 972 777 1006 815 l 972 777 q 1006 694 1006 739 q 972 604 1006 642 l 972 604 q 1006 521 1006 566 q 972 430 1006 468 l 972 430 q 1006 347 1006 392 q 972 256 1006 294 l 972 256 q 1006 174 1006 218 q 966 75 1006 115 q 868 34 925 34 q 776 75 821 34 q 728 174 728 118 q 736 214 728 194 l 736 214 q 694 208 716 208 q 602 248 647 208 q 555 347 555 292 q 563 388 555 368 l 563 388 q 521 381 543 381 q 429 422 473 381 q 381 521 381 465 q 389 562 381 541 l 389 562 q 347 555 369 555 q 304 564 324 555 l 304 564 q 312 521 312 543 q 278 430 312 468 l 278 430 q 312 347 312 392 q 278 256 312 294 l 278 256 q 312 174 312 218 q 271 75 312 115 q 174 34 231 34 l 174 34 z "},"o":{"ha":867,"x_min":34,"x_max":833,"o":"m 437 68 q 437 68 437 68 l 437 68 q 437 68 437 68 l 437 68 m 216 214 q 216 214 216 214 l 216 214 q 216 214 216 214 l 216 214 m 651 217 q 651 217 651 217 l 651 217 q 651 217 651 217 l 651 217 m 433 274 q 521 312 473 312 q 563 302 541 312 l 563 302 q 555 347 555 323 q 591 433 555 389 l 591 433 q 555 521 555 472 q 591 606 555 563 l 591 606 q 555 694 555 646 q 563 735 555 715 l 563 735 q 521 728 543 728 q 437 762 477 728 l 437 762 q 347 728 399 728 q 304 738 324 728 l 304 738 q 312 694 312 716 q 278 604 312 642 l 278 604 q 312 521 312 566 q 278 430 312 468 l 278 430 q 312 347 312 392 q 305 304 312 324 l 305 304 q 347 312 326 312 q 433 274 389 312 l 433 274 m 437 762 q 437 762 437 762 l 437 762 q 437 762 437 762 l 437 762 m 347 34 q 255 75 300 34 q 208 174 208 118 q 216 214 208 194 l 216 214 q 174 208 195 208 q 81 248 126 208 q 34 347 34 292 q 71 433 34 389 l 71 433 q 34 521 34 472 q 71 606 34 563 l 71 606 q 34 694 34 646 q 75 784 34 739 q 174 833 119 833 q 216 823 194 833 l 216 823 q 208 868 208 844 q 248 958 208 913 q 347 1006 293 1006 q 433 968 389 1006 l 433 968 q 521 1006 473 1006 q 610 966 564 1006 q 659 868 659 921 q 652 825 659 845 l 652 825 q 694 833 673 833 q 784 792 738 833 q 833 694 833 747 q 799 604 833 642 l 799 604 q 833 521 833 566 q 799 430 833 468 l 799 430 q 833 347 833 392 q 792 248 833 289 q 694 208 751 208 q 651 217 671 208 l 651 217 q 659 174 659 195 q 618 75 659 115 q 521 34 578 34 q 437 68 477 34 l 437 68 q 347 34 399 34 l 347 34 z "},"p":{"ha":867,"x_min":34,"x_max":833,"o":"m 304 391 q 304 391 304 391 l 304 391 q 304 391 304 391 l 304 391 m 437 415 q 437 415 437 415 l 437 415 q 437 415 437 415 l 437 415 m 651 564 q 651 564 651 564 l 651 564 q 651 564 651 564 l 651 564 m 433 621 q 521 659 473 659 q 563 650 541 659 l 563 650 q 555 694 555 670 q 563 735 555 715 l 563 735 q 521 728 543 728 q 437 762 477 728 l 437 762 q 347 728 399 728 q 304 738 324 728 l 304 738 q 312 694 312 716 q 305 651 312 671 l 305 651 q 347 659 326 659 q 433 621 389 659 l 433 621 m 437 762 q 437 762 437 762 l 437 762 q 437 762 437 762 l 437 762 m 174 34 q 81 75 126 34 q 34 174 34 118 q 71 259 34 216 l 71 259 q 34 347 34 298 q 71 433 34 389 l 71 433 q 34 521 34 472 q 71 606 34 563 l 71 606 q 34 694 34 646 q 71 780 34 736 l 71 780 q 34 868 34 819 q 75 958 34 913 q 174 1006 119 1006 q 259 968 216 1006 l 259 968 q 347 1006 300 1006 q 433 968 389 1006 l 433 968 q 521 1006 473 1006 q 610 966 564 1006 q 659 868 659 921 q 652 825 659 845 l 652 825 q 694 833 673 833 q 784 792 738 833 q 833 694 833 747 q 792 595 833 636 q 694 555 751 555 q 651 564 671 555 l 651 564 q 659 521 659 543 q 618 422 659 463 q 521 381 578 381 q 437 415 477 381 q 347 381 399 381 q 304 391 324 381 q 312 347 312 369 q 278 256 312 294 l 278 256 q 312 174 312 218 q 271 75 312 115 q 174 34 231 34 l 174 34 z "},"q":{"ha":867,"x_min":34,"x_max":833,"o":"m 437 68 q 437 68 437 68 l 437 68 q 437 68 437 68 l 437 68 m 216 214 q 216 214 216 214 l 216 214 q 216 214 216 214 l 216 214 m 563 735 q 563 735 563 735 l 563 735 q 563 735 563 735 l 563 735 m 304 738 q 304 738 304 738 l 304 738 q 304 738 304 738 l 304 738 m 389 302 q 381 347 381 323 q 422 437 381 392 q 521 486 467 486 q 563 476 541 486 l 563 476 q 555 521 555 496 q 591 606 555 563 l 591 606 q 555 694 555 646 q 563 735 555 715 l 563 735 q 521 728 543 728 q 437 762 477 728 l 437 762 q 347 728 399 728 q 304 738 324 728 l 304 738 q 312 694 312 716 q 278 604 312 642 l 278 604 q 312 521 312 566 q 278 430 312 468 l 278 430 q 312 347 312 392 q 305 304 312 324 l 305 304 q 347 312 326 312 q 389 302 368 312 l 389 302 m 437 762 q 437 762 437 762 l 437 762 q 437 762 437 762 l 437 762 m 347 34 q 255 75 300 34 q 208 174 208 118 q 216 214 208 194 l 216 214 q 174 208 195 208 q 81 248 126 208 q 34 347 34 292 q 71 433 34 389 l 71 433 q 34 521 34 472 q 71 606 34 563 l 71 606 q 34 694 34 646 q 75 784 34 739 q 174 833 119 833 q 216 823 194 833 l 216 823 q 208 868 208 844 q 248 958 208 913 q 347 1006 293 1006 q 433 968 389 1006 l 433 968 q 521 1006 473 1006 q 610 966 564 1006 q 659 868 659 921 q 652 825 659 845 l 652 825 q 694 833 673 833 q 784 792 738 833 q 833 694 833 747 q 799 604 833 642 l 799 604 q 833 521 833 566 q 799 430 833 468 l 799 430 q 833 347 833 392 q 799 256 833 294 l 799 256 q 833 174 833 218 q 792 75 833 115 q 694 34 751 34 q 610 68 651 34 l 610 68 q 521 34 572 34 q 437 68 477 34 q 347 34 399 34 l 347 34 z "},"r":{"ha":867,"x_min":34,"x_max":833,"o":"m 563 214 q 563 214 563 214 l 563 214 q 563 214 563 214 l 563 214 m 389 388 q 389 388 389 388 l 389 388 q 389 388 389 388 l 389 388 m 304 391 q 304 391 304 391 l 304 391 q 304 391 304 391 l 304 391 m 563 735 q 563 735 563 735 l 563 735 q 563 735 563 735 l 563 735 m 433 621 q 521 659 473 659 q 563 650 541 659 l 563 650 q 555 694 555 670 q 563 735 555 715 l 563 735 q 521 728 543 728 q 437 762 477 728 q 347 728 399 728 q 304 738 324 728 l 304 738 q 312 694 312 716 q 305 651 312 671 l 305 651 q 347 659 326 659 q 433 621 389 659 l 433 621 m 437 762 q 437 762 437 762 l 437 762 q 437 762 437 762 l 437 762 m 174 34 q 81 75 126 34 q 34 174 34 118 q 71 259 34 216 l 71 259 q 34 347 34 298 q 71 433 34 389 l 71 433 q 34 521 34 472 q 71 606 34 563 l 71 606 q 34 694 34 646 q 71 780 34 736 l 71 780 q 34 868 34 819 q 75 958 34 913 q 174 1006 119 1006 q 259 968 216 1006 l 259 968 q 347 1006 300 1006 q 433 968 389 1006 l 433 968 q 521 1006 473 1006 q 610 966 564 1006 q 659 868 659 921 q 652 825 659 845 l 652 825 q 694 833 673 833 q 784 792 738 833 q 833 694 833 747 q 792 595 833 636 q 694 555 751 555 q 651 564 671 555 l 651 564 q 659 521 659 543 q 625 430 659 468 l 625 430 q 659 347 659 392 q 652 304 659 324 l 652 304 q 694 312 673 312 q 784 271 738 312 q 833 174 833 227 q 792 75 833 115 q 694 34 751 34 q 602 75 647 34 q 555 174 555 118 q 563 214 555 194 q 521 208 543 208 q 429 248 473 208 q 381 347 381 292 q 389 388 381 368 l 389 388 q 347 381 369 381 q 304 391 324 381 l 304 391 q 312 347 312 369 q 278 256 312 294 l 278 256 q 312 174 312 218 q 271 75 312 115 q 174 34 231 34 l 174 34 z "},"s":{"ha":867,"x_min":34,"x_max":833,"o":"m 263 68 q 263 68 263 68 l 263 68 q 263 68 263 68 l 263 68 m 651 217 q 651 217 651 217 l 651 217 q 651 217 651 217 l 651 217 m 563 388 q 563 388 563 388 l 563 388 q 563 388 563 388 l 563 388 m 437 415 q 437 415 437 415 l 437 415 q 437 415 437 415 l 437 415 m 216 562 q 216 562 216 562 l 216 562 q 216 562 216 562 l 216 562 m 304 738 q 304 738 304 738 l 304 738 q 304 738 304 738 l 304 738 m 610 762 q 610 762 610 762 l 610 762 q 610 762 610 762 l 610 762 m 174 34 q 81 75 126 34 q 34 174 34 118 q 75 263 34 218 q 174 312 119 312 q 259 274 216 312 l 259 274 q 347 312 300 312 q 433 274 389 312 l 433 274 q 521 312 473 312 q 563 302 541 312 l 563 302 q 555 347 555 323 q 563 388 555 368 l 563 388 q 521 381 543 381 q 437 415 477 381 q 347 381 399 381 q 255 422 300 381 q 208 521 208 465 q 216 562 208 541 l 216 562 q 174 555 195 555 q 81 595 126 555 q 34 694 34 639 q 75 784 34 739 q 174 833 119 833 q 216 823 194 833 l 216 823 q 208 868 208 844 q 248 958 208 913 q 347 1006 293 1006 q 433 968 389 1006 l 433 968 q 521 1006 473 1006 q 606 968 563 1006 l 606 968 q 694 1006 647 1006 q 784 966 738 1006 q 833 868 833 921 q 792 769 833 810 q 694 728 751 728 q 610 762 651 728 l 610 762 q 521 728 572 728 q 437 762 477 728 l 437 762 q 347 728 399 728 q 304 738 324 728 l 304 738 q 312 694 312 716 q 305 651 312 671 l 305 651 q 347 659 326 659 q 433 621 389 659 l 433 621 q 521 659 473 659 q 610 618 564 659 q 659 521 659 574 q 652 477 659 498 l 652 477 q 694 486 673 486 q 784 445 738 486 q 833 347 833 400 q 792 248 833 289 q 694 208 751 208 q 651 217 671 208 q 659 174 659 195 q 618 75 659 115 q 521 34 578 34 q 437 68 477 34 l 437 68 q 347 34 399 34 q 263 68 304 34 l 263 68 q 174 34 225 34 l 174 34 z "},"t":{"ha":1040,"x_min":34,"x_max":1006,"o":"m 389 735 q 389 735 389 735 l 389 735 q 389 735 389 735 l 389 735 m 651 738 q 651 738 651 738 l 651 738 q 651 738 651 738 l 651 738 m 263 762 q 263 762 263 762 l 263 762 q 263 762 263 762 l 263 762 m 521 34 q 429 75 473 34 q 381 174 381 118 q 418 259 381 216 l 418 259 q 381 347 381 298 q 418 433 381 389 l 418 433 q 381 521 381 472 q 418 606 381 563 l 418 606 q 381 694 381 646 q 389 735 381 715 l 389 735 q 347 728 369 728 q 263 762 304 728 l 263 762 q 174 728 225 728 q 81 769 126 728 q 34 868 34 812 q 75 958 34 913 q 174 1006 119 1006 q 259 968 216 1006 l 259 968 q 347 1006 300 1006 q 433 968 389 1006 l 433 968 q 521 1006 473 1006 q 606 968 563 1006 l 606 968 q 694 1006 647 1006 q 780 968 736 1006 l 780 968 q 868 1006 821 1006 q 958 966 911 1006 q 1006 868 1006 921 q 966 769 1006 810 q 868 728 925 728 q 784 762 825 728 l 784 762 q 694 728 746 728 q 651 738 671 728 l 651 738 q 659 694 659 716 q 625 604 659 642 l 625 604 q 659 521 659 566 q 625 430 659 468 l 625 430 q 659 347 659 392 q 625 256 659 294 l 625 256 q 659 174 659 218 q 618 75 659 115 q 521 34 578 34 l 521 34 z "},"u":{"ha":867,"x_min":34,"x_max":833,"o":"m 437 68 q 437 68 437 68 l 437 68 q 437 68 437 68 l 437 68 m 216 214 q 216 214 216 214 l 216 214 q 216 214 216 214 l 216 214 m 347 34 q 255 75 300 34 q 208 174 208 118 q 216 214 208 194 l 216 214 q 174 208 195 208 q 81 248 126 208 q 34 347 34 292 q 71 433 34 389 l 71 433 q 34 521 34 472 q 71 606 34 563 l 71 606 q 34 694 34 646 q 71 780 34 736 l 71 780 q 34 868 34 819 q 75 958 34 913 q 174 1006 119 1006 q 263 966 217 1006 q 312 868 312 921 q 278 777 312 815 l 278 777 q 312 694 312 739 q 278 604 312 642 l 278 604 q 312 521 312 566 q 278 430 312 468 l 278 430 q 312 347 312 392 q 305 304 312 324 l 305 304 q 347 312 326 312 q 433 274 389 312 l 433 274 q 521 312 473 312 q 563 302 541 312 l 563 302 q 555 347 555 323 q 591 433 555 389 l 591 433 q 555 521 555 472 q 591 606 555 563 l 591 606 q 555 694 555 646 q 591 780 555 736 l 591 780 q 555 868 555 819 q 595 958 555 913 q 694 1006 640 1006 q 784 966 738 1006 q 833 868 833 921 q 799 777 833 815 l 799 777 q 833 694 833 739 q 799 604 833 642 l 799 604 q 833 521 833 566 q 799 430 833 468 l 799 430 q 833 347 833 392 q 799 256 833 294 l 799 256 q 833 174 833 218 q 792 75 833 115 q 694 34 751 34 q 610 68 651 34 l 610 68 q 521 34 572 34 q 437 68 477 34 q 347 34 399 34 l 347 34 z "},"v":{"ha":1040,"x_min":34,"x_max":1006,"o":"m 389 214 q 389 214 389 214 l 389 214 q 389 214 389 214 l 389 214 m 651 217 q 651 217 651 217 l 651 217 q 651 217 651 217 l 651 217 m 216 562 q 216 562 216 562 l 216 562 q 216 562 216 562 l 216 562 m 825 564 q 825 564 825 564 l 825 564 q 825 564 825 564 l 825 564 m 521 34 q 429 75 473 34 q 381 174 381 118 q 389 214 381 194 l 389 214 q 347 208 369 208 q 255 248 300 208 q 208 347 208 292 q 244 433 208 389 l 244 433 q 208 521 208 472 q 216 562 208 541 l 216 562 q 174 555 195 555 q 81 595 126 555 q 34 694 34 639 q 71 780 34 736 l 71 780 q 34 868 34 819 q 75 958 34 913 q 174 1006 119 1006 q 263 966 217 1006 q 312 868 312 921 q 278 777 312 815 l 278 777 q 312 694 312 739 q 305 651 312 671 l 305 651 q 347 659 326 659 q 437 618 391 659 q 486 521 486 574 q 452 430 486 468 l 452 430 q 486 347 486 392 q 479 304 486 324 l 479 304 q 521 312 499 312 q 563 302 541 312 l 563 302 q 555 347 555 323 q 591 433 555 389 l 591 433 q 555 521 555 472 q 595 610 555 566 q 694 659 640 659 q 736 650 715 659 l 736 650 q 728 694 728 670 q 765 780 728 736 l 765 780 q 728 868 728 819 q 769 958 728 913 q 868 1006 814 1006 q 958 966 911 1006 q 1006 868 1006 921 q 972 777 1006 815 l 972 777 q 1006 694 1006 739 q 966 595 1006 636 q 868 555 925 555 q 825 564 845 555 l 825 564 q 833 521 833 543 q 799 430 833 468 l 799 430 q 833 347 833 392 q 792 248 833 289 q 694 208 751 208 q 651 217 671 208 l 651 217 q 659 174 659 195 q 618 75 659 115 q 521 34 578 34 l 521 34 z "},"w":{"ha":1040,"x_min":34,"x_max":1006,"o":"m 563 214 q 563 214 563 214 l 563 214 q 563 214 563 214 l 563 214 m 477 217 q 477 217 477 217 l 477 217 q 477 217 477 217 l 477 217 m 825 391 q 825 391 825 391 l 825 391 q 825 391 825 391 l 825 391 m 347 34 q 255 75 300 34 q 208 174 208 118 q 244 259 208 216 l 244 259 q 208 347 208 298 q 216 388 208 368 l 216 388 q 174 381 195 381 q 81 422 126 381 q 34 521 34 465 q 71 606 34 563 l 71 606 q 34 694 34 646 q 71 780 34 736 l 71 780 q 34 868 34 819 q 75 958 34 913 q 174 1006 119 1006 q 263 966 217 1006 q 312 868 312 921 q 278 777 312 815 l 278 777 q 312 694 312 739 q 278 604 312 642 l 278 604 q 312 521 312 566 q 305 477 312 498 l 305 477 q 347 486 326 486 q 389 476 368 486 l 389 476 q 381 521 381 496 q 422 610 381 566 q 521 659 467 659 q 610 618 564 659 q 659 521 659 574 q 652 477 659 498 l 652 477 q 694 486 673 486 q 736 476 715 486 l 736 476 q 728 521 728 496 q 765 606 728 563 l 765 606 q 728 694 728 646 q 765 780 728 736 l 765 780 q 728 868 728 819 q 769 958 728 913 q 868 1006 814 1006 q 958 966 911 1006 q 1006 868 1006 921 q 972 777 1006 815 l 972 777 q 1006 694 1006 739 q 972 604 1006 642 l 972 604 q 1006 521 1006 566 q 966 422 1006 463 q 868 381 925 381 q 825 391 845 381 l 825 391 q 833 347 833 369 q 799 256 833 294 l 799 256 q 833 174 833 218 q 792 75 833 115 q 694 34 751 34 q 602 75 647 34 q 555 174 555 118 q 563 214 555 194 q 521 208 543 208 q 477 217 498 208 l 477 217 q 486 174 486 195 q 445 75 486 115 q 347 34 404 34 l 347 34 z "},"x":{"ha":1040,"x_min":34,"x_max":1006,"o":"m 736 214 q 736 214 736 214 l 736 214 q 736 214 736 214 l 736 214 m 304 217 q 304 217 304 217 l 304 217 q 304 217 304 217 l 304 217 m 563 388 q 563 388 563 388 l 563 388 q 563 388 563 388 l 563 388 m 477 391 q 477 391 477 391 l 477 391 q 477 391 477 391 l 477 391 m 389 562 q 389 562 389 562 l 389 562 q 389 562 389 562 l 389 562 m 651 564 q 651 564 651 564 l 651 564 q 651 564 651 564 l 651 564 m 216 735 q 216 735 216 735 l 216 735 q 216 735 216 735 l 216 735 m 174 34 q 81 75 126 34 q 34 174 34 118 q 75 263 34 218 q 174 312 119 312 q 216 302 194 312 l 216 302 q 208 347 208 323 q 248 437 208 392 q 347 486 293 486 q 389 476 368 486 l 389 476 q 381 521 381 496 q 389 562 381 541 l 389 562 q 347 555 369 555 q 255 595 300 555 q 208 694 208 639 q 216 735 208 715 l 216 735 q 174 728 195 728 q 81 769 126 728 q 34 868 34 812 q 75 958 34 913 q 174 1006 119 1006 q 263 966 217 1006 q 312 868 312 921 q 305 825 312 845 l 305 825 q 347 833 326 833 q 437 792 391 833 q 486 694 486 747 q 479 651 486 671 l 479 651 q 521 659 499 659 q 563 650 541 659 l 563 650 q 555 694 555 670 q 595 784 555 739 q 694 833 640 833 q 736 823 715 833 l 736 823 q 728 868 728 844 q 769 958 728 913 q 868 1006 814 1006 q 958 966 911 1006 q 1006 868 1006 921 q 966 769 1006 810 q 868 728 925 728 q 825 738 845 728 l 825 738 q 833 694 833 716 q 792 595 833 636 q 694 555 751 555 q 651 564 671 555 l 651 564 q 659 521 659 543 q 652 477 659 498 l 652 477 q 694 486 673 486 q 784 445 738 486 q 833 347 833 400 q 826 304 833 324 l 826 304 q 868 312 846 312 q 958 271 911 312 q 1006 174 1006 227 q 966 75 1006 115 q 868 34 925 34 q 776 75 821 34 q 728 174 728 118 q 736 214 728 194 l 736 214 q 694 208 716 208 q 602 248 647 208 q 555 347 555 292 q 563 388 555 368 l 563 388 q 521 381 543 381 q 477 391 498 381 l 477 391 q 486 347 486 369 q 445 248 486 289 q 347 208 404 208 q 304 217 324 208 l 304 217 q 312 174 312 195 q 271 75 312 115 q 174 34 231 34 l 174 34 z "},"y":{"ha":1040,"x_min":34,"x_max":1006,"o":"m 389 562 q 389 562 389 562 l 389 562 q 389 562 389 562 l 389 562 m 825 738 q 825 738 825 738 l 825 738 q 825 738 825 738 l 825 738 m 521 34 q 429 75 473 34 q 381 174 381 118 q 418 259 381 216 l 418 259 q 381 347 381 298 q 418 433 381 389 l 418 433 q 381 521 381 472 q 389 562 381 541 q 347 555 369 555 q 255 595 300 555 q 208 694 208 639 q 216 735 208 715 l 216 735 q 174 728 195 728 q 81 769 126 728 q 34 868 34 812 q 75 958 34 913 q 174 1006 119 1006 q 263 966 217 1006 q 312 868 312 921 q 305 825 312 845 l 305 825 q 347 833 326 833 q 437 792 391 833 q 486 694 486 747 q 479 651 486 671 l 479 651 q 521 659 499 659 q 563 650 541 659 l 563 650 q 555 694 555 670 q 595 784 555 739 q 694 833 640 833 q 736 823 715 833 l 736 823 q 728 868 728 844 q 769 958 728 913 q 868 1006 814 1006 q 958 966 911 1006 q 1006 868 1006 921 q 966 769 1006 810 q 868 728 925 728 q 825 738 845 728 l 825 738 q 833 694 833 716 q 792 595 833 636 q 694 555 751 555 q 651 564 671 555 l 651 564 q 659 521 659 543 q 625 430 659 468 l 625 430 q 659 347 659 392 q 625 256 659 294 l 625 256 q 659 174 659 218 q 618 75 659 115 q 521 34 578 34 l 521 34 z "},"z":{"ha":1040,"x_min":34,"x_max":1006,"o":"m 263 68 q 263 68 263 68 l 263 68 q 263 68 263 68 l 263 68 m 610 68 q 610 68 610 68 l 610 68 q 610 68 610 68 l 610 68 m 477 391 q 477 391 477 391 l 477 391 q 477 391 477 391 l 477 391 m 651 564 q 651 564 651 564 l 651 564 q 651 564 651 564 l 651 564 m 263 762 q 263 762 263 762 l 263 762 q 263 762 263 762 l 263 762 m 174 34 q 81 75 126 34 q 34 174 34 118 q 75 263 34 218 q 174 312 119 312 q 216 302 194 312 l 216 302 q 208 347 208 323 q 248 437 208 392 q 347 486 293 486 q 389 476 368 486 l 389 476 q 381 521 381 496 q 422 610 381 566 q 521 659 467 659 q 563 650 541 659 l 563 650 q 555 694 555 670 q 563 735 555 715 l 563 735 q 521 728 543 728 q 437 762 477 728 l 437 762 q 347 728 399 728 q 263 762 304 728 l 263 762 q 174 728 225 728 q 81 769 126 728 q 34 868 34 812 q 75 958 34 913 q 174 1006 119 1006 q 259 968 216 1006 l 259 968 q 347 1006 300 1006 q 433 968 389 1006 l 433 968 q 521 1006 473 1006 q 606 968 563 1006 l 606 968 q 694 1006 647 1006 q 780 968 736 1006 l 780 968 q 868 1006 821 1006 q 958 966 911 1006 q 1006 868 1006 921 q 966 769 1006 810 q 868 728 925 728 q 825 738 845 728 l 825 738 q 833 694 833 716 q 792 595 833 636 q 694 555 751 555 q 651 564 671 555 l 651 564 q 659 521 659 543 q 618 422 659 463 q 521 381 578 381 q 477 391 498 381 l 477 391 q 486 347 486 369 q 479 304 486 324 l 479 304 q 521 312 499 312 q 606 274 563 312 l 606 274 q 694 312 647 312 q 780 274 736 312 l 780 274 q 868 312 821 312 q 958 271 911 312 q 1006 174 1006 227 q 966 75 1006 115 q 868 34 925 34 q 784 68 825 34 l 784 68 q 694 34 746 34 q 610 68 651 34 l 610 68 q 521 34 572 34 q 437 68 477 34 l 437 68 q 347 34 399 34 q 263 68 304 34 q 174 34 225 34 l 174 34 z "},"{":{"ha":694,"x_min":34,"x_max":659,"o":"m 389 214 q 389 214 389 214 l 389 214 q 389 214 389 214 l 389 214 m 216 388 q 216 388 216 388 l 216 388 q 216 388 216 388 l 216 388 m 477 738 q 477 738 477 738 l 477 738 q 477 738 477 738 l 477 738 m 521 34 q 429 75 473 34 q 381 174 381 118 q 389 214 381 194 q 347 208 369 208 q 255 248 300 208 q 208 347 208 292 q 216 388 208 368 l 216 388 q 174 381 195 381 q 81 422 126 381 q 34 521 34 465 q 75 610 34 566 q 174 659 119 659 q 216 650 194 659 l 216 650 q 208 694 208 670 q 248 784 208 739 q 347 833 293 833 q 389 823 368 833 l 389 823 q 381 868 381 844 q 422 958 381 913 q 521 1006 467 1006 q 610 966 564 1006 q 659 868 659 921 q 618 769 659 810 q 521 728 578 728 q 477 738 498 728 l 477 738 q 486 694 486 716 q 452 604 486 642 l 452 604 q 486 521 486 566 q 452 430 486 468 l 452 430 q 486 347 486 392 q 479 304 486 324 l 479 304 q 521 312 499 312 q 610 271 564 312 q 659 174 659 227 q 618 75 659 115 q 521 34 578 34 l 521 34 z "},"|":{"ha":347,"x_min":34,"x_max":312,"o":"m 174 34 q 81 75 126 34 q 34 174 34 118 q 71 259 34 216 l 71 259 q 34 347 34 298 q 71 433 34 389 l 71 433 q 34 521 34 472 q 71 606 34 563 l 71 606 q 34 694 34 646 q 71 780 34 736 l 71 780 q 34 868 34 819 q 75 958 34 913 q 174 1006 119 1006 q 263 966 217 1006 q 312 868 312 921 q 278 777 312 815 l 278 777 q 312 694 312 739 q 278 604 312 642 l 278 604 q 312 521 312 566 q 278 430 312 468 l 278 430 q 312 347 312 392 q 278 256 312 294 l 278 256 q 312 174 312 218 q 271 75 312 115 q 174 34 231 34 l 174 34 z "},"}":{"ha":694,"x_min":34,"x_max":659,"o":"m 304 217 q 304 217 304 217 l 304 217 q 304 217 304 217 l 304 217 m 477 391 q 477 391 477 391 l 477 391 q 477 391 477 391 l 477 391 m 216 735 q 216 735 216 735 l 216 735 q 216 735 216 735 l 216 735 m 174 34 q 81 75 126 34 q 34 174 34 118 q 75 263 34 218 q 174 312 119 312 q 216 302 194 312 l 216 302 q 208 347 208 323 q 244 433 208 389 l 244 433 q 208 521 208 472 q 244 606 208 563 l 244 606 q 208 694 208 646 q 216 735 208 715 l 216 735 q 174 728 195 728 q 81 769 126 728 q 34 868 34 812 q 75 958 34 913 q 174 1006 119 1006 q 263 966 217 1006 q 312 868 312 921 q 305 825 312 845 l 305 825 q 347 833 326 833 q 437 792 391 833 q 486 694 486 747 q 479 651 486 671 l 479 651 q 521 659 499 659 q 610 618 564 659 q 659 521 659 574 q 618 422 659 463 q 521 381 578 381 q 477 391 498 381 l 477 391 q 486 347 486 369 q 445 248 486 289 q 347 208 404 208 q 304 217 324 208 q 312 174 312 195 q 271 75 312 115 q 174 34 231 34 l 174 34 z "},"~":{"ha":867,"x_min":34,"x_max":833,"o":"m 174 381 q 81 422 126 381 q 34 521 34 465 q 75 610 34 566 q 174 659 119 659 q 216 650 194 659 l 216 650 q 208 694 208 670 q 248 784 208 739 q 347 833 293 833 q 437 792 391 833 q 486 694 486 747 q 479 651 486 671 l 479 651 q 521 659 499 659 q 563 650 541 659 l 563 650 q 555 694 555 670 q 595 784 555 739 q 694 833 640 833 q 784 792 738 833 q 833 694 833 747 q 792 595 833 636 q 694 555 751 555 q 651 564 671 555 l 651 564 q 659 521 659 543 q 618 422 659 463 q 521 381 578 381 q 429 422 473 381 q 381 521 381 465 q 389 562 381 541 l 389 562 q 347 555 369 555 q 304 564 324 555 l 304 564 q 312 521 312 543 q 271 422 312 463 q 174 381 231 381 l 174 381 z "},"":{"ha":347,"x_min":34,"x_max":312,"o":"m 174 728 q 81 769 126 728 q 34 868 34 812 q 75 958 34 913 q 174 1006 119 1006 q 263 966 217 1006 q 312 868 312 921 q 271 769 312 810 q 174 728 231 728 l 174 728 z "},"":{"ha":347,"x_min":34,"x_max":312,"o":"m 174 728 q 81 769 126 728 q 34 868 34 812 q 75 958 34 913 q 174 1006 119 1006 q 263 966 217 1006 q 312 868 312 921 q 271 769 312 810 q 174 728 231 728 l 174 728 z "},"":{"ha":521,"x_min":34,"x_max":486,"o":"m 174 728 q 81 769 126 728 q 34 868 34 812 q 75 958 34 913 q 174 1006 119 1006 q 259 968 216 1006 l 259 968 q 347 1006 300 1006 q 437 966 391 1006 q 486 868 486 921 q 445 769 486 810 q 347 728 404 728 q 263 762 304 728 l 263 762 q 174 728 225 728 l 174 728 z "},"":{"ha":521,"x_min":34,"x_max":486,"o":"m 174 728 q 81 769 126 728 q 34 868 34 812 q 75 958 34 913 q 174 1006 119 1006 q 259 968 216 1006 l 259 968 q 347 1006 300 1006 q 437 966 391 1006 q 486 868 486 921 q 445 769 486 810 q 347 728 404 728 q 263 762 304 728 l 263 762 q 174 728 225 728 l 174 728 z "}}}
